<svg width="24" height="29" viewBox="0 0 24 29" fill="none" xmlns="http://www.w3.org/2000/svg">
<path d="M12.1327 5.83722C17.5296 5.83722 21.9047 10.2919 21.9047 15.787V23.0545C21.9047 23.3192 21.8014 23.5731 21.6176 23.7602C21.4337 23.9474 21.1844 24.0526 20.9244 24.0526H3.34097C3.08099 24.0526 2.83166 23.9474 2.64782 23.7602C2.46399 23.5731 2.36071 23.3192 2.36071 23.0545V15.787C2.36071 10.2919 6.73574 5.83722 12.1327 5.83722ZM11.275 0.347656H12.9904C13.0554 0.347656 13.1178 0.373946 13.1637 0.420741C13.2097 0.467536 13.2355 0.531003 13.2355 0.597182V3.59149C13.2355 3.65767 13.2097 3.72113 13.1637 3.76793C13.1178 3.81472 13.0554 3.84101 12.9904 3.84101H11.275C11.21 3.84101 11.1476 3.81472 11.1017 3.76793C11.0557 3.72113 11.0299 3.65767 11.0299 3.59149V0.597182C11.0299 0.531003 11.0557 0.467536 11.1017 0.420741C11.1476 0.373946 11.21 0.347656 11.275 0.347656ZM1.87824 4.2047C1.901 4.1815 1.92803 4.16309 1.95778 4.15053C1.98753 4.13798 2.01942 4.13151 2.05162 4.13151C2.08383 4.13151 2.11572 4.13798 2.14547 4.15053C2.17522 4.16309 2.20225 4.1815 2.22501 4.2047L4.30439 6.32192C4.35031 6.36871 4.37611 6.43215 4.37611 6.4983C4.37611 6.56445 4.35031 6.6279 4.30439 6.67469L3.09131 7.90984C3.04536 7.9566 2.98305 7.98286 2.91808 7.98286C2.85311 7.98286 2.7908 7.9566 2.74485 7.90984L0.665471 5.79261C0.619547 5.74582 0.59375 5.68238 0.59375 5.61623C0.59375 5.55008 0.619547 5.48664 0.665471 5.43985L1.87854 4.2047H1.87824ZM22.3902 4.2047L23.6033 5.43985C23.6491 5.48662 23.6749 5.55 23.6749 5.61607C23.6749 5.68215 23.6491 5.74552 23.6033 5.7923L21.5239 7.91015C21.5011 7.93335 21.4741 7.95175 21.4444 7.96431C21.4146 7.97687 21.3827 7.98333 21.3505 7.98333C21.3183 7.98333 21.2864 7.97687 21.2567 7.96431C21.2269 7.95175 21.1999 7.93335 21.1771 7.91015L19.9641 6.675C19.9413 6.65182 19.9232 6.6243 19.9109 6.59401C19.8985 6.56372 19.8922 6.53125 19.8922 6.49846C19.8922 6.46567 19.8985 6.4332 19.9109 6.4029C19.9232 6.37261 19.9413 6.34509 19.9641 6.32192L22.0437 4.2047C22.0897 4.15794 22.152 4.13167 22.217 4.13167C22.2819 4.13167 22.3443 4.15794 22.3902 4.2047ZM2.33008 26.0488H21.9353C22.1953 26.0488 22.4446 26.1539 22.6285 26.3411C22.8123 26.5283 22.9156 26.7822 22.9156 27.0469V27.7955C22.9156 27.8616 22.8897 27.9251 22.8438 27.9719C22.7978 28.0187 22.7355 28.045 22.6705 28.045H1.59488C1.52989 28.045 1.46755 28.0187 1.42159 27.9719C1.37564 27.9251 1.34982 27.8616 1.34982 27.7955V27.0469C1.34982 26.7822 1.45309 26.5283 1.63693 26.3411C1.82076 26.1539 2.0701 26.0488 2.33008 26.0488ZM6.86379 16.1613V24.0526H8.82431V16.1613H6.86379Z" fill="url(#paint0_linear_157_956)"/>
<defs>
<linearGradient id="paint0_linear_157_956" x1="12.1343" y1="0.347656" x2="12.1343" y2="28.045" gradientUnits="userSpaceOnUse">
<stop/>
<stop offset="1" stop-color="#3EC772"/>
</linearGradient>
</defs>
</svg>
