<svg width="1989" height="427" viewBox="0 0 1989 427" fill="none" xmlns="http://www.w3.org/2000/svg">
<path d="M741.078 0.800781L-3306.85 426.255" stroke="#B3B3B3" stroke-width="1.06364"/>
<path d="M751.992 0.800781L-1587.35 426.255" stroke="#B3B3B3" stroke-width="1.06364"/>
<path d="M762.898 0.800781L-868.651 426.255" stroke="#B3B3B3" stroke-width="1.06364"/>
<path d="M773.812 0.800781L-467.207 426.255" stroke="#B3B3B3" stroke-width="1.06364"/>
<path d="M784.719 0.800781L-206.471 426.255" stroke="#B3B3B3" stroke-width="1.06364"/>
<path d="M795.625 0.800781L-20.3278 426.255" stroke="#B3B3B3" stroke-width="1.06364"/>
<path d="M806.531 0.800781L121.576 426.255" stroke="#B3B3B3" stroke-width="1.06364"/>
<path d="M817.444 0.800781L235.151 426.255" stroke="#B3B3B3" stroke-width="1.06364"/>
<path d="M828.352 0.800781L329.531 426.255" stroke="#B3B3B3" stroke-width="1.06364"/>
<path d="M839.265 0.800781L410.37 426.255" stroke="#B3B3B3" stroke-width="1.06364"/>
<path d="M850.172 0.800781L481.332 426.255" stroke="#B3B3B3" stroke-width="1.06364"/>
<path d="M861.078 0.800781L544.93 426.255" stroke="#B3B3B3" stroke-width="1.06364"/>
<path d="M871.992 0.800781L602.951 426.255" stroke="#B3B3B3" stroke-width="1.06364"/>
<path d="M882.899 0.800781L656.681 426.255" stroke="#B3B3B3" stroke-width="1.06364"/>
<path d="M893.812 0.800781L707.119 426.255" stroke="#B3B3B3" stroke-width="1.06364"/>
<path d="M904.719 0.800781L755.021 426.255" stroke="#B3B3B3" stroke-width="1.06364"/>
<path d="M915.633 0.800781L801.02 426.255" stroke="#B3B3B3" stroke-width="1.06364"/>
<path d="M926.531 0.800781L845.608 426.255" stroke="#B3B3B3" stroke-width="1.06364"/>
<path d="M937.444 0.800781L889.259 426.255" stroke="#B3B3B3" stroke-width="1.06364"/>
<path d="M948.352 0.800781L932.35 426.255" stroke="#B3B3B3" stroke-width="1.06364"/>
<path d="M959.265 0.800781L975.266 426.255" stroke="#B3B3B3" stroke-width="1.06364"/>
<path d="M970.172 0.800781L1018.36 426.255" stroke="#B3B3B3" stroke-width="1.06364"/>
<path d="M981.078 0.800781L1062 426.255" stroke="#B3B3B3" stroke-width="1.06364"/>
<path d="M991.992 0.800781L1106.6 426.255" stroke="#B3B3B3" stroke-width="1.06364"/>
<path d="M1002.9 0.800781L1152.6 426.255" stroke="#B3B3B3" stroke-width="1.06364"/>
<path d="M1013.81 0.800781L1200.51 426.255" stroke="#B3B3B3" stroke-width="1.06364"/>
<path d="M1024.72 0.800781L1250.94 426.255" stroke="#B3B3B3" stroke-width="1.06364"/>
<path d="M1035.63 0.800781L1304.67 426.255" stroke="#B3B3B3" stroke-width="1.06364"/>
<path d="M1046.53 0.800781L1362.68 426.255" stroke="#B3B3B3" stroke-width="1.06364"/>
<path d="M1057.45 0.800781L1426.29 426.255" stroke="#B3B3B3" stroke-width="1.06364"/>
<path d="M1068.35 0.800781L1497.25 426.255" stroke="#B3B3B3" stroke-width="1.06364"/>
<path d="M1079.27 0.800781L1578.09 426.255" stroke="#B3B3B3" stroke-width="1.06364"/>
<path d="M1090.17 0.800781L1672.47 426.255" stroke="#B3B3B3" stroke-width="1.06364"/>
<path d="M1101.08 0.800781L1786.03 426.255" stroke="#B3B3B3" stroke-width="1.06364"/>
<path d="M1112 0.800781L1927.95 426.255" stroke="#B3B3B3" stroke-width="1.06364"/>
<path d="M1122.9 0.800781L2114.09 426.255" stroke="#B3B3B3" stroke-width="1.06364"/>
<path d="M1133.82 0.800781L2374.84 426.255" stroke="#B3B3B3" stroke-width="1.06364"/>
<path d="M1144.72 0.800781L2776.27 426.255" stroke="#B3B3B3" stroke-width="1.06364"/>
<path d="M1155.64 0.800781L3494.98 426.255" stroke="#B3B3B3" stroke-width="1.06364"/>
<path d="M1166.54 0.800781L5214.47 426.255" stroke="#B3B3B3" stroke-width="1.06364"/>
<path d="M741.078 0.800781H1166.53" stroke="#B3B3B3" stroke-width="1.06364"/>
<path d="M741.078 0.800781H1166.53" stroke="#B3B3B3" stroke-width="1.06364"/>
<path d="M741.078 0.800781H1166.53" stroke="#B3B3B3" stroke-width="1.06364"/>
<path d="M741.078 0.800781H1166.53" stroke="#B3B3B3" stroke-width="1.06364"/>
<path d="M741.078 0.800781H1166.53" stroke="#B3B3B3" stroke-width="1.06364"/>
<path d="M741.078 0.800781H1166.53" stroke="#B3B3B3" stroke-width="1.06364"/>
<path d="M741.078 0.800781H1166.53" stroke="#B3B3B3" stroke-width="1.06364"/>
<path d="M741.078 0.800781H1166.53" stroke="#B3B3B3" stroke-width="1.06364"/>
<path d="M741.078 0.800781H1166.54" stroke="#B3B3B3" stroke-width="1.06364"/>
<path d="M741.078 0.800781H1166.54" stroke="#B3B3B3" stroke-width="1.06364"/>
<path d="M741.07 0.804688H1166.55" stroke="#B3B3B3" stroke-width="1.06364"/>
<path d="M741.055 0.804688H1166.56" stroke="#B3B3B3" stroke-width="1.06364"/>
<path d="M741.023 0.808594H1166.6" stroke="#B3B3B3" stroke-width="1.06364"/>
<path d="M740.945 0.816406H1166.66" stroke="#B3B3B3" stroke-width="1.06364"/>
<path d="M740.812 0.828125H1166.8" stroke="#B3B3B3" stroke-width="1.06364"/>
<path d="M740.57 0.855469H1167.04" stroke="#B3B3B3" stroke-width="1.06364"/>
<path d="M740.148 0.902344H1167.47" stroke="#B3B3B3" stroke-width="1.06364"/>
<path d="M739.43 0.976562H1168.18" stroke="#B3B3B3" stroke-width="1.06364"/>
<path d="M738.258 1.10156H1169.36" stroke="#B3B3B3" stroke-width="1.06364"/>
<path d="M736.391 1.29688H1171.23" stroke="#B3B3B3" stroke-width="1.06364"/>
<path d="M733.484 1.60156H1174.14" stroke="#B3B3B3" stroke-width="1.06364"/>
<path d="M729.055 2.0625H1178.56" stroke="#B3B3B3" stroke-width="1.06364"/>
<path d="M722.461 2.75781H1185.16" stroke="#B3B3B3" stroke-width="1.06364"/>
<path d="M712.797 3.77734H1194.81" stroke="#B3B3B3" stroke-width="1.06364"/>
<path d="M698.89 5.23816H1208.72" stroke="#B3B3B3" stroke-width="1.06364"/>
<path d="M679.156 7.3125H1228.46" stroke="#B3B3B3" stroke-width="1.06364"/>
<path d="M651.547 10.2109H1256.06" stroke="#B3B3B3" stroke-width="1.06364"/>
<path d="M613.422 14.2227H1294.19" stroke="#B3B3B3" stroke-width="1.06364"/>
<path d="M561.398 19.6875H1346.22" stroke="#B3B3B3" stroke-width="1.06364"/>
<path d="M491.18 27.0664H1416.43" stroke="#B3B3B3" stroke-width="1.06364"/>
<path d="M397.391 36.9219H1510.22" stroke="#B3B3B3" stroke-width="1.06364"/>
<path d="M273.32 49.9648H1634.3" stroke="#B3B3B3" stroke-width="1.06364"/>
<path d="M110.656 67.0625H1796.97" stroke="#B3B3B3" stroke-width="1.06364"/>
<path d="M-100.812 89.2852H2008.43" stroke="#B3B3B3" stroke-width="1.06364"/>
<path d="M-373.539 117.953H2281.16" stroke="#B3B3B3" stroke-width="1.06364"/>
<path d="M-722.656 154.645H2630.29" stroke="#B3B3B3" stroke-width="1.06364"/>
<path d="M-1166.44 201.293H3074.06" stroke="#B3B3B3" stroke-width="1.06364"/>
<path d="M-1726.78 260.188H3634.41" stroke="#B3B3B3" stroke-width="1.06364"/>
<path d="M-2429.89 334.086H4337.49" stroke="#B3B3B3" stroke-width="1.06364"/>
<path d="M-3306.84 426.254H5214.47" stroke="#B3B3B3" stroke-width="1.06364"/>
</svg>
