<svg viewBox="0 0 1989 1175" fill="none" xmlns="http://www.w3.org/2000/svg">
  <path d="M741.078 748.801L-3306.85 1174.26" stroke="#B3B3B3" strokeWidth="1.06364"/>
  <path d="M751.992 748.801L-1587.35 1174.26" stroke="#B3B3B3" strokeWidth="1.06364"/>
  <path d="M762.898 748.801L-868.651 1174.26" stroke="#B3B3B3" strokeWidth="1.06364"/>
  <path d="M773.812 748.801L-467.207 1174.26" stroke="#B3B3B3" strokeWidth="1.06364"/>
  <path d="M784.719 748.801L-206.471 1174.26" stroke="#B3B3B3" strokeWidth="1.06364"/>
  <path d="M795.625 748.801L-20.3278 1174.26" stroke="#B3B3B3" strokeWidth="1.06364"/>
  <path d="M806.531 748.801L121.576 1174.26" stroke="#B3B3B3" strokeWidth="1.06364"/>
  <path d="M817.444 748.801L235.151 1174.26" stroke="#B3B3B3" strokeWidth="1.06364"/>
  <path d="M828.352 748.801L329.531 1174.26" stroke="#B3B3B3" strokeWidth="1.06364"/>
  <path d="M839.265 748.801L410.37 1174.26" stroke="#B3B3B3" strokeWidth="1.06364"/>
  <path d="M850.172 748.801L481.332 1174.26" stroke="#B3B3B3" strokeWidth="1.06364"/>
  <path d="M861.078 748.801L544.93 1174.26" stroke="#B3B3B3" strokeWidth="1.06364"/>
  <path d="M871.992 748.801L602.951 1174.26" stroke="#B3B3B3" strokeWidth="1.06364"/>
  <path d="M882.899 748.801L656.681 1174.26" stroke="#B3B3B3" strokeWidth="1.06364"/>
  <path d="M893.812 748.801L707.119 1174.26" stroke="#B3B3B3" strokeWidth="1.06364"/>
  <path d="M904.719 748.801L755.021 1174.26" stroke="#B3B3B3" strokeWidth="1.06364"/>
  <path d="M915.633 748.801L801.02 1174.26" stroke="#B3B3B3" strokeWidth="1.06364"/>
  <path d="M926.531 748.801L845.608 1174.26" stroke="#B3B3B3" strokeWidth="1.06364"/>
  <path d="M937.444 748.801L889.259 1174.26" stroke="#B3B3B3" strokeWidth="1.06364"/>
  <path d="M948.352 748.801L932.35 1174.26" stroke="#B3B3B3" strokeWidth="1.06364"/>
  <path d="M959.265 748.801L975.266 1174.26" stroke="#B3B3B3" strokeWidth="1.06364"/>
  <path d="M970.172 748.801L1018.36 1174.26" stroke="#B3B3B3" strokeWidth="1.06364"/>
  <path d="M981.078 748.801L1062 1174.26" stroke="#B3B3B3" strokeWidth="1.06364"/>
  <path d="M991.992 748.801L1106.6 1174.26" stroke="#B3B3B3" strokeWidth="1.06364"/>
  <path d="M1002.9 748.801L1152.6 1174.26" stroke="#B3B3B3" strokeWidth="1.06364"/>
  <path d="M1013.81 748.801L1200.51 1174.26" stroke="#B3B3B3" strokeWidth="1.06364"/>
  <path d="M1024.72 748.801L1250.94 1174.26" stroke="#B3B3B3" strokeWidth="1.06364"/>
  <path d="M1035.63 748.801L1304.67 1174.26" stroke="#B3B3B3" strokeWidth="1.06364"/>
  <path d="M1046.53 748.801L1362.68 1174.26" stroke="#B3B3B3" strokeWidth="1.06364"/>
  <path d="M1057.45 748.801L1426.29 1174.26" stroke="#B3B3B3" strokeWidth="1.06364"/>
  <path d="M1068.35 748.801L1497.25 1174.26" stroke="#B3B3B3" strokeWidth="1.06364"/>
  <path d="M1079.27 748.801L1578.09 1174.26" stroke="#B3B3B3" strokeWidth="1.06364"/>
  <path d="M1090.17 748.801L1672.47 1174.26" stroke="#B3B3B3" strokeWidth="1.06364"/>
  <path d="M1101.08 748.801L1786.03 1174.26" stroke="#B3B3B3" strokeWidth="1.06364"/>
  <path d="M1112 748.801L1927.95 1174.26" stroke="#B3B3B3" strokeWidth="1.06364"/>
  <path d="M1122.9 748.801L2114.09 1174.26" stroke="#B3B3B3" strokeWidth="1.06364"/>
  <path d="M1133.82 748.801L2374.84 1174.26" stroke="#B3B3B3" strokeWidth="1.06364"/>
  <path d="M1144.72 748.801L2776.27 1174.26" stroke="#B3B3B3" strokeWidth="1.06364"/>
  <path d="M1155.64 748.801L3494.98 1174.26" stroke="#B3B3B3" strokeWidth="1.06364"/>
  <path d="M1166.54 748.801L5214.47 1174.26" stroke="#B3B3B3" strokeWidth="1.06364"/>
  
  {/* Horizontal lines */}
  <path d="M-100.812 837.285H2008.43" stroke="#B3B3B3" strokeWidth="1.06364"/>
  <path d="M-373.539 865.953H2281.16" stroke="#B3B3B3" strokeWidth="1.06364"/>
  <path d="M-722.656 902.645H2630.29" stroke="#B3B3B3" strokeWidth="1.06364"/>
  <path d="M-1166.44 949.293H3074.06" stroke="#B3B3B3" strokeWidth="1.06364"/>
  <path d="M-1726.78 1008.19H3634.41" stroke="#B3B3B3" strokeWidth="1.06364"/>
  <path d="M-2429.89 1082.09H4337.49" stroke="#B3B3B3" strokeWidth="1.06364"/>
  <path d="M-3306.84 1174.25H5214.47" stroke="#B3B3B3" strokeWidth="1.06364"/>
</svg>