<svg width="1646" height="1175" viewBox="0 0 1646 1175" fill="none" xmlns="http://www.w3.org/2000/svg">
<circle opacity="0.1" cx="1059.64" cy="564.085" r="398.726" fill="#00FF56"/>
<circle opacity="0.1" cx="1059.64" cy="564.085" r="398.726" fill="#00FF56"/>
<circle cx="1059.64" cy="564.084" r="368.721" fill="url(#paint0_linear_157_962)"/>
<circle cx="1059.64" cy="564.084" r="365.008" stroke="url(#paint1_linear_157_962)" stroke-opacity="0.25" stroke-width="7.42476"/>
<g filter="url(#filter0_dddddddd_157_962)">
<rect x="660.914" y="261.145" width="797.452" height="604.725" rx="16.7021" fill="white"/>
<rect x="664.096" y="264.327" width="791.088" height="598.361" rx="13.5201" stroke="url(#paint2_linear_157_962)" stroke-width="6.36408"/>
</g>
<mask id="mask0_157_962" style="mask-type:alpha" maskUnits="userSpaceOnUse" x="666" y="266" width="787" height="464">
<rect x="666.398" y="266.973" width="786.027" height="462.682" rx="21.2727" fill="white"/>
</mask>
<g mask="url(#mask0_157_962)">
<path d="M666.398 105.16V747.51" stroke="#B3B3B3" stroke-opacity="0.1" stroke-width="2.93921"/>
<path d="M737.844 105.16V747.51" stroke="#B3B3B3" stroke-opacity="0.1" stroke-width="2.93921"/>
<path d="M809.297 105.16V747.51" stroke="#B3B3B3" stroke-opacity="0.1" stroke-width="2.93921"/>
<path d="M880.773 105.16V747.51" stroke="#B3B3B3" stroke-opacity="0.1" stroke-width="2.93921"/>
<path d="M952.203 105.16V747.51" stroke="#B3B3B3" stroke-opacity="0.1" stroke-width="2.93921"/>
<path d="M1023.67 105.16V747.51" stroke="#B3B3B3" stroke-opacity="0.1" stroke-width="2.93921"/>
<path d="M1095.15 105.16V747.51" stroke="#B3B3B3" stroke-opacity="0.1" stroke-width="2.93921"/>
<path d="M1166.6 105.16V747.51" stroke="#B3B3B3" stroke-opacity="0.1" stroke-width="2.93921"/>
<path d="M1238.05 105.16V747.51" stroke="#B3B3B3" stroke-opacity="0.1" stroke-width="2.93921"/>
<path d="M1309.5 105.16V747.51" stroke="#B3B3B3" stroke-opacity="0.1" stroke-width="2.93921"/>
<path d="M1380.96 105.16V747.51" stroke="#B3B3B3" stroke-opacity="0.1" stroke-width="2.93921"/>
<path d="M1452.42 105.16V747.51" stroke="#B3B3B3" stroke-opacity="0.1" stroke-width="2.93921"/>
<path d="M666.398 280.352H1452.43" stroke="#B3B3B3" stroke-opacity="0.1" stroke-width="2.93921"/>
<path d="M666.398 338.742H1452.43" stroke="#B3B3B3" stroke-opacity="0.1" stroke-width="2.93921"/>
<path d="M666.398 397.133H1452.43" stroke="#B3B3B3" stroke-opacity="0.1" stroke-width="2.93921"/>
<path d="M666.398 455.527H1452.43" stroke="#B3B3B3" stroke-opacity="0.1" stroke-width="2.93921"/>
<path d="M666.398 513.93H1452.43" stroke="#B3B3B3" stroke-opacity="0.1" stroke-width="2.93921"/>
<path d="M666.398 572.316H1452.43" stroke="#B3B3B3" stroke-opacity="0.1" stroke-width="2.93921"/>
<path d="M666.398 630.711H1452.43" stroke="#B3B3B3" stroke-opacity="0.1" stroke-width="2.93921"/>
<path d="M666.398 689.121H1452.43" stroke="#B3B3B3" stroke-opacity="0.1" stroke-width="2.93921"/>
</g>
<path fill-rule="evenodd" clip-rule="evenodd" d="M675.977 568.449C675.977 566.58 676.95 564.843 678.572 563.915C692.124 556.164 718.702 543.769 734.685 546.282C742.354 547.488 747.826 549.586 752.974 551.56C762.155 555.081 770.306 558.206 788.056 555.169C796.298 553.759 807.373 550.724 819.864 547.3C849.36 539.216 886.749 528.969 913.352 532.854C927.793 534.962 938.685 538.564 948.398 541.776C964.155 546.986 976.805 551.169 996.459 546.282C1012.72 542.238 1019.53 535.606 1027.14 528.187C1034.4 521.116 1042.38 513.331 1060 506.392C1068.09 503.203 1074.33 500.61 1079.39 498.507C1096.91 491.23 1100.34 489.804 1117.69 489.804C1140.05 489.804 1163.94 480.72 1175.13 465.711C1177.62 462.366 1180.02 458.335 1182.55 454.098C1191.36 439.323 1201.66 422.047 1222.4 422.661C1225.9 422.765 1229.2 422.923 1232.31 423.073C1252.88 424.063 1265.62 424.676 1280.85 406.665C1298.39 385.93 1337.53 363.615 1352.78 362.035C1358.75 361.416 1363.71 360.191 1368.82 358.93C1376.74 356.972 1385.03 354.926 1398.02 354.926H1416.66C1432.89 354.926 1446.05 368.085 1446.05 384.318L1446.05 568.449L1446.05 573.534L1446.05 699.201C1446.05 715.434 1432.89 728.593 1416.66 728.593H705.369C689.136 728.593 675.977 715.433 675.977 699.201V573.534V568.449Z" fill="white"/>
<path fill-rule="evenodd" clip-rule="evenodd" d="M675.977 568.449C675.977 566.58 676.95 564.843 678.572 563.915C692.124 556.164 718.702 543.769 734.685 546.282C742.354 547.488 747.826 549.586 752.974 551.56C762.155 555.081 770.306 558.206 788.056 555.169C796.298 553.759 807.373 550.724 819.864 547.3C849.36 539.216 886.749 528.969 913.352 532.854C927.793 534.962 938.685 538.564 948.398 541.776C964.155 546.986 976.805 551.169 996.459 546.282C1012.72 542.238 1019.53 535.606 1027.14 528.187C1034.4 521.116 1042.38 513.331 1060 506.392C1068.09 503.203 1074.33 500.61 1079.39 498.507C1096.91 491.23 1100.34 489.804 1117.69 489.804C1140.05 489.804 1163.94 480.72 1175.13 465.711C1177.62 462.366 1180.02 458.335 1182.55 454.098C1191.36 439.323 1201.66 422.047 1222.4 422.661C1225.9 422.765 1229.2 422.923 1232.31 423.073C1252.88 424.063 1265.62 424.676 1280.85 406.665C1298.39 385.93 1337.53 363.615 1352.78 362.035C1358.75 361.416 1363.71 360.191 1368.82 358.93C1376.74 356.972 1385.03 354.926 1398.02 354.926H1432.22C1439.86 354.926 1446.05 361.116 1446.05 368.753L1446.05 568.449L1446.05 573.534L1446.05 714.766C1446.05 722.402 1439.86 728.593 1432.22 728.593H689.804C682.167 728.593 675.977 722.402 675.977 714.766V573.534V568.449Z" fill="url(#paint3_linear_157_962)"/>
<circle cx="1207.59" cy="433.77" r="17.6353" fill="white" stroke="url(#paint4_linear_157_962)" stroke-width="5.87842"/>
<path d="M1207.93 454.172L1207.77 728.59" stroke="#3EC772" stroke-width="5.87842"/>
<g filter="url(#filter1_bddddd_157_962)">
<rect x="530" y="393" width="338" height="76" rx="21.3707" fill="white"/>
<rect x="531.336" y="394.336" width="335.329" height="73.3287" rx="20.0351" stroke="#E0E0E0" stroke-width="2.67134"/>
</g>
<g filter="url(#filter2_bddddd_157_962)">
<rect x="1304.87" y="558.891" width="282.743" height="75.0136" rx="21.3707" fill="white"/>
<rect x="1306.2" y="560.226" width="280.072" height="72.3422" rx="20.0351" stroke="#E0E0E0" stroke-width="2.67134"/>
</g>
<path d="M1392.8 602.941V582.373H1405.21V584.582H1395.29V591.532H1404.57V593.742H1395.29V600.732H1405.37V602.941H1392.8ZM1410.62 593.661V602.941H1408.25V587.515H1410.54V589.925H1410.74C1411.1 589.142 1411.65 588.513 1412.38 588.037C1413.12 587.555 1414.07 587.314 1415.24 587.314C1416.28 587.314 1417.19 587.528 1417.98 587.957C1418.76 588.379 1419.37 589.021 1419.81 589.885C1420.24 590.742 1420.46 591.827 1420.46 593.139V602.941H1418.09V593.3C1418.09 592.088 1417.77 591.144 1417.14 590.468C1416.51 589.785 1415.65 589.443 1414.55 589.443C1413.8 589.443 1413.12 589.607 1412.52 589.935C1411.93 590.263 1411.47 590.742 1411.13 591.372C1410.79 592.001 1410.62 592.764 1410.62 593.661ZM1430.37 587.515V589.524H1422.37V587.515H1430.37ZM1424.7 583.819H1427.07V598.522C1427.07 599.192 1427.17 599.694 1427.36 600.029C1427.56 600.357 1427.82 600.578 1428.13 600.692C1428.44 600.799 1428.77 600.852 1429.12 600.852C1429.38 600.852 1429.6 600.839 1429.76 600.812C1429.93 600.779 1430.07 600.752 1430.17 600.732L1430.65 602.861C1430.49 602.921 1430.26 602.982 1429.98 603.042C1429.69 603.109 1429.32 603.142 1428.88 603.142C1428.21 603.142 1427.55 602.998 1426.91 602.71C1426.28 602.423 1425.75 601.984 1425.33 601.395C1424.91 600.806 1424.7 600.062 1424.7 599.165V583.819ZM1432.8 602.941V587.515H1435.09V589.845H1435.25C1435.53 589.082 1436.04 588.462 1436.78 587.987C1437.51 587.512 1438.34 587.274 1439.27 587.274C1439.44 587.274 1439.66 587.277 1439.92 587.284C1440.18 587.291 1440.38 587.301 1440.51 587.314V589.724C1440.43 589.704 1440.25 589.674 1439.96 589.634C1439.68 589.587 1439.38 589.564 1439.07 589.564C1438.32 589.564 1437.65 589.721 1437.06 590.036C1436.48 590.344 1436.01 590.772 1435.67 591.321C1435.34 591.864 1435.17 592.483 1435.17 593.179V602.941H1432.8ZM1444.19 608.726C1443.79 608.726 1443.43 608.693 1443.11 608.626C1442.8 608.566 1442.58 608.505 1442.46 608.445L1443.06 606.356C1443.64 606.503 1444.15 606.557 1444.59 606.517C1445.03 606.477 1445.42 606.279 1445.77 605.924C1446.11 605.576 1446.43 605.01 1446.72 604.227L1447.16 603.022L1441.46 587.515H1444.03L1448.29 599.808H1448.45L1452.71 587.515H1455.28L1448.73 605.191C1448.43 605.988 1448.07 606.647 1447.63 607.17C1447.2 607.699 1446.69 608.09 1446.12 608.345C1445.55 608.599 1444.91 608.726 1444.19 608.726ZM1475.67 587.515C1475.55 586.497 1475.06 585.707 1474.2 585.145C1473.34 584.582 1472.29 584.301 1471.05 584.301C1470.14 584.301 1469.34 584.448 1468.66 584.743C1467.98 585.038 1467.45 585.443 1467.07 585.958C1466.69 586.474 1466.51 587.06 1466.51 587.716C1466.51 588.265 1466.64 588.737 1466.9 589.132C1467.17 589.52 1467.51 589.845 1467.92 590.106C1468.34 590.361 1468.77 590.571 1469.23 590.739C1469.68 590.9 1470.1 591.03 1470.48 591.131L1472.57 591.693C1473.11 591.834 1473.7 592.028 1474.36 592.275C1475.02 592.523 1475.66 592.861 1476.26 593.29C1476.87 593.712 1477.37 594.254 1477.77 594.917C1478.16 595.58 1478.36 596.393 1478.36 597.357C1478.36 598.469 1478.07 599.473 1477.48 600.37C1476.91 601.268 1476.06 601.981 1474.95 602.51C1473.85 603.038 1472.51 603.303 1470.93 603.303C1469.45 603.303 1468.18 603.065 1467.1 602.59C1466.03 602.115 1465.18 601.452 1464.57 600.601C1463.96 599.751 1463.61 598.763 1463.53 597.639H1466.11C1466.17 598.415 1466.43 599.058 1466.89 599.567C1467.35 600.069 1467.93 600.444 1468.64 600.692C1469.35 600.933 1470.11 601.053 1470.93 601.053C1471.88 601.053 1472.73 600.899 1473.49 600.591C1474.24 600.277 1474.84 599.841 1475.28 599.286C1475.73 598.723 1475.95 598.067 1475.95 597.317C1475.95 596.634 1475.76 596.079 1475.38 595.65C1474.99 595.221 1474.49 594.873 1473.87 594.606C1473.25 594.338 1472.57 594.103 1471.85 593.902L1469.32 593.179C1467.71 592.717 1466.44 592.058 1465.5 591.201C1464.57 590.344 1464.1 589.222 1464.1 587.836C1464.1 586.685 1464.41 585.68 1465.03 584.823C1465.66 583.96 1466.5 583.29 1467.56 582.815C1468.63 582.333 1469.81 582.092 1471.13 582.092C1472.45 582.092 1473.63 582.329 1474.66 582.805C1475.69 583.273 1476.51 583.916 1477.11 584.733C1477.72 585.55 1478.04 586.477 1478.08 587.515H1475.67ZM1481 602.941V587.515H1483.37V602.941H1481ZM1482.21 584.944C1481.74 584.944 1481.35 584.787 1481.01 584.472C1480.68 584.157 1480.52 583.779 1480.52 583.337C1480.52 582.895 1480.68 582.517 1481.01 582.202C1481.35 581.887 1481.74 581.73 1482.21 581.73C1482.67 581.73 1483.06 581.887 1483.39 582.202C1483.73 582.517 1483.89 582.895 1483.89 583.337C1483.89 583.779 1483.73 584.157 1483.39 584.472C1483.06 584.787 1482.67 584.944 1482.21 584.944ZM1492.81 609.048C1491.66 609.048 1490.68 608.9 1489.85 608.606C1489.03 608.318 1488.34 607.936 1487.8 607.461C1487.25 606.992 1486.82 606.49 1486.5 605.954L1488.39 604.629C1488.6 604.91 1488.87 605.231 1489.2 605.593C1489.53 605.961 1489.98 606.279 1490.55 606.547C1491.12 606.821 1491.88 606.959 1492.81 606.959C1494.05 606.959 1495.08 606.657 1495.89 606.055C1496.7 605.452 1497.11 604.508 1497.11 603.223V600.089H1496.91C1496.73 600.37 1496.48 600.719 1496.16 601.134C1495.85 601.542 1495.39 601.907 1494.8 602.228C1494.21 602.543 1493.41 602.7 1492.41 602.7C1491.16 602.7 1490.04 602.406 1489.05 601.817C1488.07 601.227 1487.29 600.37 1486.71 599.245C1486.14 598.121 1485.86 596.755 1485.86 595.148C1485.86 593.568 1486.14 592.192 1486.69 591.02C1487.25 589.842 1488.02 588.931 1489.01 588.288C1490 587.639 1491.15 587.314 1492.45 587.314C1493.45 587.314 1494.25 587.482 1494.84 587.816C1495.43 588.144 1495.89 588.519 1496.2 588.941C1496.52 589.356 1496.77 589.698 1496.95 589.966H1497.19V587.515H1499.48V603.383C1499.48 604.709 1499.17 605.787 1498.57 606.617C1497.98 607.454 1497.17 608.067 1496.16 608.455C1495.16 608.85 1494.04 609.048 1492.81 609.048ZM1492.73 600.571C1493.68 600.571 1494.48 600.354 1495.14 599.918C1495.79 599.483 1496.29 598.857 1496.63 598.04C1496.98 597.223 1497.15 596.246 1497.15 595.108C1497.15 593.996 1496.98 593.015 1496.64 592.165C1496.31 591.315 1495.81 590.648 1495.16 590.166C1494.5 589.684 1493.69 589.443 1492.73 589.443C1491.72 589.443 1490.89 589.698 1490.22 590.207C1489.55 590.715 1489.05 591.398 1488.72 592.255C1488.39 593.112 1488.23 594.063 1488.23 595.108C1488.23 596.179 1488.4 597.126 1488.73 597.95C1489.07 598.767 1489.57 599.41 1490.24 599.878C1490.91 600.34 1491.74 600.571 1492.73 600.571ZM1505.05 593.661V602.941H1502.68V587.515H1504.97V589.925H1505.17C1505.54 589.142 1506.08 588.513 1506.82 588.037C1507.56 587.555 1508.51 587.314 1509.67 587.314C1510.72 587.314 1511.63 587.528 1512.42 587.957C1513.2 588.379 1513.81 589.021 1514.24 589.885C1514.68 590.742 1514.9 591.827 1514.9 593.139V602.941H1512.53V593.3C1512.53 592.088 1512.21 591.144 1511.58 590.468C1510.95 589.785 1510.09 589.443 1508.99 589.443C1508.23 589.443 1507.56 589.607 1506.96 589.935C1506.37 590.263 1505.91 590.742 1505.57 591.372C1505.22 592.001 1505.05 592.764 1505.05 593.661ZM1522.64 603.303C1521.66 603.303 1520.77 603.119 1519.97 602.751C1519.18 602.376 1518.54 601.837 1518.08 601.134C1517.61 600.424 1517.37 599.567 1517.37 598.563C1517.37 597.679 1517.55 596.962 1517.9 596.413C1518.24 595.858 1518.71 595.422 1519.29 595.108C1519.87 594.793 1520.52 594.559 1521.22 594.405C1521.93 594.244 1522.64 594.117 1523.36 594.023C1524.3 593.902 1525.06 593.812 1525.64 593.752C1526.23 593.685 1526.66 593.574 1526.92 593.42C1527.2 593.266 1527.34 592.999 1527.34 592.617V592.537C1527.34 591.546 1527.06 590.776 1526.52 590.227C1525.99 589.678 1525.17 589.403 1524.08 589.403C1522.95 589.403 1522.06 589.651 1521.42 590.146C1520.78 590.642 1520.33 591.171 1520.06 591.733L1517.81 590.93C1518.22 589.992 1518.75 589.263 1519.42 588.74C1520.1 588.211 1520.83 587.843 1521.63 587.635C1522.43 587.421 1523.22 587.314 1524 587.314C1524.5 587.314 1525.07 587.374 1525.71 587.495C1526.36 587.609 1526.98 587.846 1527.59 588.208C1528.2 588.57 1528.7 589.115 1529.1 589.845C1529.51 590.575 1529.71 591.552 1529.71 592.778V602.941H1527.34V600.852H1527.22C1527.05 601.187 1526.79 601.545 1526.41 601.927C1526.04 602.309 1525.54 602.633 1524.92 602.901C1524.29 603.169 1523.53 603.303 1522.64 603.303ZM1523 601.174C1523.93 601.174 1524.72 600.99 1525.37 600.621C1526.02 600.253 1526.51 599.778 1526.83 599.195C1527.17 598.613 1527.34 598 1527.34 597.357V595.188C1527.24 595.309 1527.01 595.419 1526.67 595.519C1526.34 595.613 1525.95 595.697 1525.51 595.771C1525.07 595.837 1524.65 595.898 1524.23 595.951C1523.82 595.998 1523.49 596.038 1523.24 596.072C1522.62 596.152 1522.05 596.283 1521.51 596.464C1520.98 596.638 1520.55 596.902 1520.23 597.257C1519.9 597.605 1519.74 598.08 1519.74 598.683C1519.74 599.507 1520.05 600.129 1520.66 600.551C1521.27 600.966 1522.05 601.174 1523 601.174ZM1535.27 582.373V602.941H1532.9V582.373H1535.27ZM1549.41 590.97L1547.28 591.572C1547.14 591.218 1546.95 590.873 1546.69 590.538C1546.43 590.197 1546.08 589.915 1545.64 589.694C1545.2 589.473 1544.63 589.363 1543.94 589.363C1543 589.363 1542.21 589.581 1541.58 590.016C1540.96 590.444 1540.65 590.99 1540.65 591.653C1540.65 592.242 1540.86 592.707 1541.29 593.049C1541.72 593.39 1542.39 593.675 1543.3 593.902L1545.59 594.465C1546.97 594.8 1548 595.312 1548.67 596.002C1549.35 596.684 1549.69 597.565 1549.69 598.643C1549.69 599.527 1549.43 600.317 1548.93 601.013C1548.42 601.709 1547.72 602.258 1546.82 602.66C1545.91 603.062 1544.86 603.263 1543.66 603.263C1542.09 603.263 1540.79 602.921 1539.76 602.238C1538.73 601.555 1538.07 600.558 1537.8 599.245L1540.05 598.683C1540.26 599.513 1540.67 600.136 1541.26 600.551C1541.87 600.966 1542.65 601.174 1543.62 601.174C1544.73 601.174 1545.6 600.939 1546.25 600.471C1546.91 599.995 1547.24 599.426 1547.24 598.763C1547.24 598.228 1547.05 597.779 1546.68 597.418C1546.3 597.049 1545.73 596.775 1544.95 596.594L1542.38 595.991C1540.96 595.657 1539.93 595.138 1539.26 594.435C1538.61 593.725 1538.28 592.838 1538.28 591.773C1538.28 590.903 1538.52 590.133 1539.01 589.463C1539.51 588.794 1540.18 588.268 1541.03 587.887C1541.89 587.505 1542.86 587.314 1543.94 587.314C1545.47 587.314 1546.67 587.649 1547.54 588.318C1548.42 588.988 1549.04 589.872 1549.41 590.97Z" fill="black"/>
<path d="M1360.92 584.013C1367.18 584.013 1372.25 589.087 1372.25 595.345V603.621C1372.25 603.923 1372.13 604.212 1371.92 604.425C1371.7 604.638 1371.42 604.758 1371.11 604.758H1350.72C1350.42 604.758 1350.13 604.638 1349.92 604.425C1349.71 604.212 1349.59 603.923 1349.59 603.621V595.345C1349.59 589.087 1354.66 584.013 1360.92 584.013ZM1359.92 577.762H1361.91C1361.99 577.762 1362.06 577.792 1362.11 577.845C1362.17 577.898 1362.2 577.971 1362.2 578.046V581.456C1362.2 581.531 1362.17 581.604 1362.11 581.657C1362.06 581.71 1361.99 581.74 1361.91 581.74H1359.92C1359.85 581.74 1359.78 581.71 1359.72 581.657C1359.67 581.604 1359.64 581.531 1359.64 581.456V578.046C1359.64 577.971 1359.67 577.898 1359.72 577.845C1359.78 577.792 1359.85 577.762 1359.92 577.762ZM1349.03 582.154C1349.05 582.128 1349.09 582.107 1349.12 582.093C1349.16 582.078 1349.19 582.071 1349.23 582.071C1349.27 582.071 1349.3 582.078 1349.34 582.093C1349.37 582.107 1349.4 582.128 1349.43 582.154L1351.84 584.565C1351.9 584.619 1351.92 584.691 1351.92 584.766C1351.92 584.842 1351.9 584.914 1351.84 584.967L1350.44 586.374C1350.38 586.427 1350.31 586.457 1350.23 586.457C1350.16 586.457 1350.09 586.427 1350.03 586.374L1347.62 583.963C1347.57 583.909 1347.54 583.837 1347.54 583.762C1347.54 583.686 1347.57 583.614 1347.62 583.561L1349.03 582.154H1349.03ZM1372.81 582.154L1374.22 583.561C1374.27 583.614 1374.3 583.686 1374.3 583.762C1374.3 583.837 1374.27 583.909 1374.22 583.962L1371.81 586.374C1371.78 586.401 1371.75 586.422 1371.72 586.436C1371.68 586.45 1371.65 586.458 1371.61 586.458C1371.57 586.458 1371.53 586.45 1371.5 586.436C1371.46 586.422 1371.43 586.401 1371.41 586.374L1370 584.968C1369.97 584.941 1369.95 584.91 1369.94 584.875C1369.92 584.841 1369.92 584.804 1369.92 584.766C1369.92 584.729 1369.92 584.692 1369.94 584.658C1369.95 584.623 1369.97 584.592 1370 584.565L1372.41 582.154C1372.47 582.101 1372.54 582.071 1372.61 582.071C1372.69 582.071 1372.76 582.101 1372.81 582.154ZM1349.55 607.031H1372.29C1372.59 607.031 1372.88 607.151 1373.09 607.364C1373.3 607.577 1373.42 607.866 1373.42 608.168V609.02C1373.42 609.096 1373.39 609.168 1373.34 609.221C1373.29 609.275 1373.21 609.305 1373.14 609.305H1348.7C1348.62 609.305 1348.55 609.275 1348.5 609.221C1348.45 609.168 1348.42 609.096 1348.42 609.02V608.168C1348.42 607.866 1348.54 607.577 1348.75 607.364C1348.96 607.151 1349.25 607.031 1349.55 607.031ZM1354.81 595.771V604.758H1357.08V595.771H1354.81Z" fill="url(#paint5_linear_157_962)"/>
<path d="M934.027 781.754V774.025H962.721V781.754H952.59V809.16H944.158V781.754H934.027ZM971.893 809.16H963.929V781.403H971.483V790.421H972.127C973.884 782.691 976.226 781.11 979.857 781.11H980.677V790.245H979.037C973.474 790.245 971.893 791.885 971.893 796.804V809.16ZM992.189 803.656C995.819 803.656 998.103 801.489 998.103 798.502V797.39H992.364C989.788 797.39 988.148 798.561 988.148 800.493C988.148 802.25 989.144 803.656 992.189 803.656ZM998.513 809.16V802.543H997.81C996.405 806.935 993.477 809.746 988.734 809.746C984.049 809.746 980.594 807.345 980.594 801.899C980.594 796.921 983.522 793.466 990.842 793.466H998.103V791.534C998.103 788.664 996.873 787.025 993.828 787.025C991.193 787.025 989.671 788.313 989.144 791.007L981.648 789.309C982.585 784.272 986.45 780.7 994.121 780.7C1002.55 780.7 1006.01 784.565 1006.01 791.534V809.16H998.513ZM1021.29 802.953C1024.63 802.953 1026.91 800.493 1026.91 796.628V794.462C1026.91 790.421 1024.74 787.845 1021.23 787.845C1017.42 787.845 1015.67 790.304 1015.67 795.516C1015.67 800.493 1017.37 802.953 1021.29 802.953ZM1026.91 809.16V801.899H1026.44C1025.04 806.759 1021.99 809.98 1017.37 809.98C1011.39 809.98 1007.88 804.885 1007.88 795.516C1007.88 785.854 1011.39 780.642 1017.48 780.642C1021.93 780.642 1024.92 783.57 1026.38 788.43H1026.91V771.565H1034.87V809.16H1026.91ZM1050.81 786.615C1047.18 786.615 1045.13 788.489 1044.72 793.056H1056.32C1056.2 788.723 1054.39 786.615 1050.81 786.615ZM1050.93 809.921C1042.56 809.921 1036.82 805.295 1036.82 795.867C1036.82 786.263 1042.03 780.642 1051.05 780.642C1059.6 780.642 1063.64 785.678 1063.64 793.349C1063.64 794.52 1063.58 795.633 1063.46 797.097H1044.66C1045.13 801.547 1047.18 803.538 1050.99 803.538C1054.74 803.538 1055.91 801.782 1056.61 799.674L1063.29 801.489C1062.06 806.291 1058.84 809.921 1050.93 809.921ZM1097.8 809.16L1095.4 801.372H1081.81L1079.41 809.16H1070.69L1082.98 774.025H1094.58L1106.82 809.16H1097.8ZM1085.09 790.89L1083.75 795.223H1093.47L1092.12 790.89C1091.12 787.727 1090.19 784.448 1089.37 781.286H1087.96C1087.08 784.448 1086.09 787.727 1085.09 790.89ZM1114.82 771.565V809.16H1106.86V771.565H1114.82ZM1129.6 787.435C1125.67 787.435 1124.27 789.133 1124.27 791.358C1124.27 793.583 1125.61 795.282 1129.6 795.282C1133.64 795.282 1135.04 793.583 1135.04 791.358C1135.04 789.074 1133.4 787.435 1129.6 787.435ZM1129.95 813.903C1136.74 813.903 1138.32 812.908 1138.32 810.975C1138.32 809.629 1137.38 808.692 1135.16 808.692H1125.73C1123.27 808.692 1121.81 809.863 1121.81 811.21C1121.81 813.084 1123.27 813.903 1129.95 813.903ZM1144.47 810.741C1144.47 816.539 1140.66 819.467 1129.42 819.467C1118.82 819.467 1115.83 817.3 1115.83 813.845C1115.83 811.327 1118.59 809.629 1122.33 808.867V808.516C1119.35 808.106 1118.06 806.642 1118.06 804.71C1118.06 803.129 1119.29 801.723 1121.57 800.728L1123.62 799.674C1119.46 798.327 1117.18 795.399 1117.18 791.065C1117.18 784.858 1121.87 781.403 1129.77 781.403H1143.83V787.376H1140.78C1139.43 787.376 1137.68 787.318 1135.45 787.083L1135.39 787.727C1138.85 788.372 1141.78 789.66 1141.78 792.881C1141.78 797.507 1137.38 800.493 1129.6 800.493C1127.9 800.493 1126.32 800.318 1124.97 800.025L1124.5 800.786C1124.21 801.313 1123.97 801.84 1123.97 802.309C1123.97 803.304 1124.68 803.714 1126.43 803.714C1129.48 803.714 1132.64 803.538 1135.51 803.538C1141.66 803.538 1144.47 806.232 1144.47 810.741ZM1158.4 809.98C1149.38 809.98 1144.05 804.417 1144.05 795.282C1144.05 786.029 1149.56 780.642 1158.4 780.642C1167.07 780.642 1172.63 786.029 1172.63 795.282C1172.63 804.417 1167.24 809.98 1158.4 809.98ZM1158.34 787.318C1153.95 787.318 1152.02 790.187 1152.02 795.223C1152.02 800.259 1153.83 803.187 1158.34 803.187C1162.79 803.187 1164.67 800.259 1164.67 795.223C1164.67 790.187 1162.73 787.318 1158.34 787.318Z" fill="black"/>
<path d="M934.027 781.754V774.025H962.721V781.754H952.59V809.16H944.158V781.754H934.027ZM971.893 809.16H963.929V781.403H971.483V790.421H972.127C973.884 782.691 976.226 781.11 979.857 781.11H980.677V790.245H979.037C973.474 790.245 971.893 791.885 971.893 796.804V809.16ZM992.189 803.656C995.819 803.656 998.103 801.489 998.103 798.502V797.39H992.364C989.788 797.39 988.148 798.561 988.148 800.493C988.148 802.25 989.144 803.656 992.189 803.656ZM998.513 809.16V802.543H997.81C996.405 806.935 993.477 809.746 988.734 809.746C984.049 809.746 980.594 807.345 980.594 801.899C980.594 796.921 983.522 793.466 990.842 793.466H998.103V791.534C998.103 788.664 996.873 787.025 993.828 787.025C991.193 787.025 989.671 788.313 989.144 791.007L981.648 789.309C982.585 784.272 986.45 780.7 994.121 780.7C1002.55 780.7 1006.01 784.565 1006.01 791.534V809.16H998.513ZM1021.29 802.953C1024.63 802.953 1026.91 800.493 1026.91 796.628V794.462C1026.91 790.421 1024.74 787.845 1021.23 787.845C1017.42 787.845 1015.67 790.304 1015.67 795.516C1015.67 800.493 1017.37 802.953 1021.29 802.953ZM1026.91 809.16V801.899H1026.44C1025.04 806.759 1021.99 809.98 1017.37 809.98C1011.39 809.98 1007.88 804.885 1007.88 795.516C1007.88 785.854 1011.39 780.642 1017.48 780.642C1021.93 780.642 1024.92 783.57 1026.38 788.43H1026.91V771.565H1034.87V809.16H1026.91ZM1050.81 786.615C1047.18 786.615 1045.13 788.489 1044.72 793.056H1056.32C1056.2 788.723 1054.39 786.615 1050.81 786.615ZM1050.93 809.921C1042.56 809.921 1036.82 805.295 1036.82 795.867C1036.82 786.263 1042.03 780.642 1051.05 780.642C1059.6 780.642 1063.64 785.678 1063.64 793.349C1063.64 794.52 1063.58 795.633 1063.46 797.097H1044.66C1045.13 801.547 1047.18 803.538 1050.99 803.538C1054.74 803.538 1055.91 801.782 1056.61 799.674L1063.29 801.489C1062.06 806.291 1058.84 809.921 1050.93 809.921ZM1097.8 809.16L1095.4 801.372H1081.81L1079.41 809.16H1070.69L1082.98 774.025H1094.58L1106.82 809.16H1097.8ZM1085.09 790.89L1083.75 795.223H1093.47L1092.12 790.89C1091.12 787.727 1090.19 784.448 1089.37 781.286H1087.96C1087.08 784.448 1086.09 787.727 1085.09 790.89ZM1114.82 771.565V809.16H1106.86V771.565H1114.82ZM1129.6 787.435C1125.67 787.435 1124.27 789.133 1124.27 791.358C1124.27 793.583 1125.61 795.282 1129.6 795.282C1133.64 795.282 1135.04 793.583 1135.04 791.358C1135.04 789.074 1133.4 787.435 1129.6 787.435ZM1129.95 813.903C1136.74 813.903 1138.32 812.908 1138.32 810.975C1138.32 809.629 1137.38 808.692 1135.16 808.692H1125.73C1123.27 808.692 1121.81 809.863 1121.81 811.21C1121.81 813.084 1123.27 813.903 1129.95 813.903ZM1144.47 810.741C1144.47 816.539 1140.66 819.467 1129.42 819.467C1118.82 819.467 1115.83 817.3 1115.83 813.845C1115.83 811.327 1118.59 809.629 1122.33 808.867V808.516C1119.35 808.106 1118.06 806.642 1118.06 804.71C1118.06 803.129 1119.29 801.723 1121.57 800.728L1123.62 799.674C1119.46 798.327 1117.18 795.399 1117.18 791.065C1117.18 784.858 1121.87 781.403 1129.77 781.403H1143.83V787.376H1140.78C1139.43 787.376 1137.68 787.318 1135.45 787.083L1135.39 787.727C1138.85 788.372 1141.78 789.66 1141.78 792.881C1141.78 797.507 1137.38 800.493 1129.6 800.493C1127.9 800.493 1126.32 800.318 1124.97 800.025L1124.5 800.786C1124.21 801.313 1123.97 801.84 1123.97 802.309C1123.97 803.304 1124.68 803.714 1126.43 803.714C1129.48 803.714 1132.64 803.538 1135.51 803.538C1141.66 803.538 1144.47 806.232 1144.47 810.741ZM1158.4 809.98C1149.38 809.98 1144.05 804.417 1144.05 795.282C1144.05 786.029 1149.56 780.642 1158.4 780.642C1167.07 780.642 1172.63 786.029 1172.63 795.282C1172.63 804.417 1167.24 809.98 1158.4 809.98ZM1158.34 787.318C1153.95 787.318 1152.02 790.187 1152.02 795.223C1152.02 800.259 1153.83 803.187 1158.34 803.187C1162.79 803.187 1164.67 800.259 1164.67 795.223C1164.67 790.187 1162.73 787.318 1158.34 787.318Z" fill="url(#paint6_linear_157_962)" fill-opacity="0.3" style="mix-blend-mode:lighten"/>
<g filter="url(#filter3_dddddddd_157_962)">
<rect x="1363.73" y="772.391" width="42.7" height="42.7" rx="21.35" fill="white"/>
<rect x="1364.26" y="772.921" width="41.6394" height="41.6394" rx="20.8197" stroke="url(#paint7_linear_157_962)" stroke-width="1.06068"/>
</g>
<g filter="url(#filter4_dddddddd_157_962)">
<rect x="755.539" y="815.09" width="42.7" height="42.7" rx="21.35" transform="rotate(-180 755.539 815.09)" fill="white"/>
<rect x="755.009" y="814.56" width="41.6394" height="41.6394" rx="20.8197" transform="rotate(-180 755.009 814.56)" stroke="url(#paint8_linear_157_962)" stroke-width="1.06068"/>
</g>
<path d="M1390.52 795.111H1372.96V792.37H1390.52L1382.45 784.696L1384.5 782.777L1396.04 793.741L1384.5 804.704L1382.45 802.786L1390.52 795.111Z" fill="black"/>
<path d="M727.593 792.369L745.156 792.369L745.156 795.11L727.593 795.11L735.671 802.785L733.616 804.703L722.075 793.74L733.616 782.776L735.671 784.695L727.593 792.369Z" fill="black"/>
<g filter="url(#filter5_bddddd_157_962)">
<rect x="1103" y="236" width="383" height="75" rx="21.3707" fill="white"/>
<rect x="1104.34" y="237.336" width="380.329" height="72.3287" rx="20.0351" stroke="#E0E0E0" stroke-width="2.67134"/>
</g>
<path d="M1207.04 267.859H1204.55C1204.4 267.143 1204.15 266.513 1203.78 265.971C1203.42 265.429 1202.97 264.973 1202.45 264.605C1201.94 264.23 1201.36 263.949 1200.73 263.761C1200.11 263.574 1199.45 263.48 1198.77 263.48C1197.52 263.48 1196.39 263.795 1195.38 264.424C1194.38 265.054 1193.58 265.981 1192.98 267.206C1192.39 268.432 1192.1 269.935 1192.1 271.716C1192.1 273.497 1192.39 275 1192.98 276.225C1193.58 277.45 1194.38 278.378 1195.38 279.007C1196.39 279.636 1197.52 279.951 1198.77 279.951C1199.45 279.951 1200.11 279.857 1200.73 279.67C1201.36 279.482 1201.94 279.205 1202.45 278.836C1202.97 278.461 1203.42 278.003 1203.78 277.46C1204.15 276.911 1204.4 276.282 1204.55 275.572H1207.04C1206.85 276.624 1206.51 277.564 1206.02 278.394C1205.52 279.225 1204.91 279.931 1204.17 280.514C1203.43 281.089 1202.61 281.528 1201.69 281.829C1200.78 282.131 1199.8 282.281 1198.77 282.281C1197.01 282.281 1195.45 281.853 1194.09 280.996C1192.72 280.139 1191.65 278.92 1190.86 277.34C1190.08 275.76 1189.69 273.885 1189.69 271.716C1189.69 269.546 1190.08 267.672 1190.86 266.091C1191.65 264.511 1192.72 263.293 1194.09 262.436C1195.45 261.579 1197.01 261.15 1198.77 261.15C1199.8 261.15 1200.78 261.301 1201.69 261.602C1202.61 261.903 1203.43 262.345 1204.17 262.928C1204.91 263.504 1205.52 264.207 1206.02 265.037C1206.51 265.86 1206.85 266.801 1207.04 267.859ZM1215.88 282.321C1214.49 282.321 1213.27 281.99 1212.22 281.327C1211.17 280.664 1210.35 279.737 1209.76 278.545C1209.18 277.353 1208.89 275.961 1208.89 274.367C1208.89 272.76 1209.18 271.358 1209.76 270.159C1210.35 268.961 1211.17 268.03 1212.22 267.367C1213.27 266.704 1214.49 266.373 1215.88 266.373C1217.27 266.373 1218.49 266.704 1219.54 267.367C1220.59 268.03 1221.4 268.961 1221.99 270.159C1222.58 271.358 1222.87 272.76 1222.87 274.367C1222.87 275.961 1222.58 277.353 1221.99 278.545C1221.4 279.737 1220.59 280.664 1219.54 281.327C1218.49 281.99 1217.27 282.321 1215.88 282.321ZM1215.88 280.192C1216.94 280.192 1217.81 279.921 1218.49 279.379C1219.18 278.836 1219.68 278.123 1220.01 277.24C1220.34 276.356 1220.5 275.398 1220.5 274.367C1220.5 273.336 1220.34 272.375 1220.01 271.485C1219.68 270.594 1219.18 269.874 1218.49 269.325C1217.81 268.776 1216.94 268.502 1215.88 268.502C1214.82 268.502 1213.95 268.776 1213.27 269.325C1212.59 269.874 1212.08 270.594 1211.75 271.485C1211.43 272.375 1211.26 273.336 1211.26 274.367C1211.26 275.398 1211.43 276.356 1211.75 277.24C1212.08 278.123 1212.59 278.836 1213.27 279.379C1213.95 279.921 1214.82 280.192 1215.88 280.192ZM1227.73 272.72V282H1225.36V266.574H1227.65V268.984H1227.85C1228.21 268.201 1228.76 267.571 1229.5 267.096C1230.23 266.614 1231.18 266.373 1232.35 266.373C1233.39 266.373 1234.31 266.587 1235.09 267.015C1235.87 267.437 1236.48 268.08 1236.92 268.944C1237.35 269.801 1237.57 270.885 1237.57 272.198V282H1235.2V272.358C1235.2 271.147 1234.89 270.203 1234.26 269.526C1233.63 268.843 1232.76 268.502 1231.67 268.502C1230.91 268.502 1230.23 268.666 1229.64 268.994C1229.05 269.322 1228.58 269.801 1228.24 270.43C1227.9 271.06 1227.73 271.823 1227.73 272.72ZM1247.64 266.574V268.582H1239.32V266.574H1247.64ZM1241.82 282V264.444C1241.82 263.561 1242.02 262.824 1242.44 262.235C1242.85 261.646 1243.39 261.204 1244.05 260.909C1244.72 260.615 1245.42 260.467 1246.15 260.467C1246.74 260.467 1247.21 260.514 1247.58 260.608C1247.95 260.702 1248.22 260.789 1248.4 260.869L1247.72 262.918C1247.6 262.878 1247.43 262.827 1247.22 262.767C1247.01 262.707 1246.74 262.677 1246.39 262.677C1245.61 262.677 1245.05 262.874 1244.7 263.269C1244.36 263.664 1244.19 264.244 1244.19 265.007V282H1241.82ZM1249.83 282V266.574H1252.2V282H1249.83ZM1251.04 264.003C1250.57 264.003 1250.18 263.845 1249.84 263.53C1249.51 263.216 1249.35 262.837 1249.35 262.396C1249.35 261.954 1249.51 261.575 1249.84 261.261C1250.18 260.946 1250.57 260.789 1251.04 260.789C1251.5 260.789 1251.89 260.946 1252.22 261.261C1252.56 261.575 1252.72 261.954 1252.72 262.396C1252.72 262.837 1252.56 263.216 1252.22 263.53C1251.89 263.845 1251.5 264.003 1251.04 264.003ZM1255.41 282V266.574H1257.7V268.904H1257.86C1258.14 268.14 1258.65 267.521 1259.39 267.046C1260.12 266.57 1260.95 266.333 1261.88 266.333C1262.05 266.333 1262.27 266.336 1262.53 266.343C1262.79 266.349 1262.99 266.359 1263.12 266.373V268.783C1263.04 268.763 1262.86 268.733 1262.57 268.693C1262.29 268.646 1261.99 268.622 1261.68 268.622C1260.93 268.622 1260.26 268.78 1259.67 269.094C1259.09 269.402 1258.62 269.831 1258.28 270.38C1257.95 270.922 1257.78 271.542 1257.78 272.238V282H1255.41ZM1264.8 282V266.574H1267.09V268.984H1267.29C1267.61 268.16 1268.13 267.521 1268.85 267.066C1269.57 266.604 1270.43 266.373 1271.43 266.373C1272.45 266.373 1273.3 266.604 1273.97 267.066C1274.65 267.521 1275.19 268.16 1275.57 268.984H1275.73C1276.12 268.187 1276.72 267.554 1277.51 267.086C1278.3 266.61 1279.24 266.373 1280.35 266.373C1281.73 266.373 1282.86 266.805 1283.73 267.668C1284.61 268.525 1285.05 269.861 1285.05 271.676V282H1282.68V271.676C1282.68 270.537 1282.37 269.724 1281.75 269.235C1281.12 268.746 1280.39 268.502 1279.55 268.502C1278.46 268.502 1277.62 268.83 1277.02 269.486C1276.43 270.136 1276.13 270.959 1276.13 271.957V282H1273.72V271.435C1273.72 270.557 1273.44 269.851 1272.87 269.315C1272.3 268.773 1271.56 268.502 1270.67 268.502C1270.05 268.502 1269.48 268.666 1268.94 268.994C1268.41 269.322 1267.98 269.777 1267.65 270.36C1267.33 270.936 1267.17 271.602 1267.17 272.358V282H1264.8ZM1292.79 282.362C1291.81 282.362 1290.93 282.177 1290.13 281.809C1289.33 281.434 1288.7 280.895 1288.23 280.192C1287.76 279.482 1287.53 278.625 1287.53 277.621C1287.53 276.737 1287.7 276.021 1288.05 275.472C1288.4 274.916 1288.86 274.481 1289.45 274.166C1290.03 273.852 1290.67 273.617 1291.38 273.463C1292.09 273.303 1292.8 273.175 1293.51 273.082C1294.45 272.961 1295.21 272.871 1295.79 272.81C1296.38 272.743 1296.81 272.633 1297.08 272.479C1297.35 272.325 1297.49 272.057 1297.49 271.676V271.595C1297.49 270.604 1297.22 269.834 1296.68 269.285C1296.14 268.736 1295.33 268.462 1294.24 268.462C1293.11 268.462 1292.22 268.709 1291.58 269.205C1290.93 269.7 1290.48 270.229 1290.22 270.792L1287.97 269.988C1288.37 269.051 1288.91 268.321 1289.58 267.799C1290.25 267.27 1290.99 266.902 1291.79 266.694C1292.59 266.48 1293.38 266.373 1294.16 266.373C1294.65 266.373 1295.22 266.433 1295.86 266.553C1296.51 266.667 1297.14 266.905 1297.74 267.267C1298.35 267.628 1298.86 268.174 1299.26 268.904C1299.66 269.633 1299.86 270.611 1299.86 271.836V282H1297.49V279.911H1297.37C1297.21 280.246 1296.94 280.604 1296.57 280.986C1296.19 281.367 1295.69 281.692 1295.07 281.96C1294.45 282.228 1293.69 282.362 1292.79 282.362ZM1293.15 280.232C1294.09 280.232 1294.88 280.048 1295.52 279.68C1296.17 279.312 1296.66 278.836 1296.99 278.254C1297.32 277.671 1297.49 277.059 1297.49 276.416V274.247C1297.39 274.367 1297.17 274.478 1296.83 274.578C1296.49 274.672 1296.11 274.755 1295.66 274.829C1295.23 274.896 1294.8 274.956 1294.39 275.01C1293.98 275.057 1293.65 275.097 1293.39 275.13C1292.78 275.211 1292.2 275.341 1291.67 275.522C1291.14 275.696 1290.71 275.961 1290.38 276.316C1290.06 276.664 1289.9 277.139 1289.9 277.742C1289.9 278.565 1290.2 279.188 1290.81 279.61C1291.43 280.025 1292.21 280.232 1293.15 280.232ZM1309.77 266.574V268.582H1301.77V266.574H1309.77ZM1304.1 262.878H1306.47V277.581C1306.47 278.251 1306.57 278.753 1306.76 279.087C1306.96 279.416 1307.22 279.636 1307.53 279.75C1307.84 279.857 1308.17 279.911 1308.52 279.911C1308.78 279.911 1309 279.898 1309.16 279.871C1309.33 279.837 1309.46 279.811 1309.56 279.79L1310.05 281.92C1309.89 281.98 1309.66 282.04 1309.37 282.1C1309.09 282.167 1308.72 282.201 1308.28 282.201C1307.61 282.201 1306.95 282.057 1306.31 281.769C1305.67 281.481 1305.15 281.043 1304.72 280.453C1304.31 279.864 1304.1 279.121 1304.1 278.224V262.878ZM1312.2 282V266.574H1314.57V282H1312.2ZM1313.4 264.003C1312.94 264.003 1312.54 263.845 1312.21 263.53C1311.88 263.216 1311.72 262.837 1311.72 262.396C1311.72 261.954 1311.88 261.575 1312.21 261.261C1312.54 260.946 1312.94 260.789 1313.4 260.789C1313.87 260.789 1314.26 260.946 1314.59 261.261C1314.92 261.575 1315.09 261.954 1315.09 262.396C1315.09 262.837 1314.92 263.216 1314.59 263.53C1314.26 263.845 1313.87 264.003 1313.4 264.003ZM1324.05 282.321C1322.65 282.321 1321.43 281.99 1320.38 281.327C1319.34 280.664 1318.52 279.737 1317.93 278.545C1317.35 277.353 1317.06 275.961 1317.06 274.367C1317.06 272.76 1317.35 271.358 1317.93 270.159C1318.52 268.961 1319.34 268.03 1320.38 267.367C1321.43 266.704 1322.65 266.373 1324.05 266.373C1325.44 266.373 1326.66 266.704 1327.7 267.367C1328.75 268.03 1329.57 268.961 1330.15 270.159C1330.74 271.358 1331.04 272.76 1331.04 274.367C1331.04 275.961 1330.74 277.353 1330.15 278.545C1329.57 279.737 1328.75 280.664 1327.7 281.327C1326.66 281.99 1325.44 282.321 1324.05 282.321ZM1324.05 280.192C1325.1 280.192 1325.98 279.921 1326.66 279.379C1327.34 278.836 1327.85 278.123 1328.17 277.24C1328.5 276.356 1328.67 275.398 1328.67 274.367C1328.67 273.336 1328.5 272.375 1328.17 271.485C1327.85 270.594 1327.34 269.874 1326.66 269.325C1325.98 268.776 1325.1 268.502 1324.05 268.502C1322.99 268.502 1322.12 268.776 1321.44 269.325C1320.75 269.874 1320.25 270.594 1319.92 271.485C1319.59 272.375 1319.43 273.336 1319.43 274.367C1319.43 275.398 1319.59 276.356 1319.92 277.24C1320.25 278.123 1320.75 278.836 1321.44 279.379C1322.12 279.921 1322.99 280.192 1324.05 280.192ZM1335.89 272.72V282H1333.52V266.574H1335.81V268.984H1336.01C1336.38 268.201 1336.93 267.571 1337.66 267.096C1338.4 266.614 1339.35 266.373 1340.51 266.373C1341.56 266.373 1342.47 266.587 1343.26 267.015C1344.04 267.437 1344.65 268.08 1345.08 268.944C1345.52 269.801 1345.74 270.885 1345.74 272.198V282H1343.37V272.358C1343.37 271.147 1343.05 270.203 1342.42 269.526C1341.79 268.843 1340.93 268.502 1339.83 268.502C1339.07 268.502 1338.4 268.666 1337.8 268.994C1337.21 269.322 1336.75 269.801 1336.41 270.43C1336.06 271.06 1335.89 271.823 1335.89 272.72ZM1356.92 282H1354.31L1361.87 261.431H1364.44L1371.99 282H1369.38L1363.23 264.685H1363.07L1356.92 282ZM1357.89 273.965H1368.41V276.175H1357.89V273.965ZM1376.11 272.72V282H1373.74V266.574H1376.03V268.984H1376.23C1376.59 268.201 1377.14 267.571 1377.88 267.096C1378.61 266.614 1379.57 266.373 1380.73 266.373C1381.77 266.373 1382.69 266.587 1383.47 267.015C1384.26 267.437 1384.86 268.08 1385.3 268.944C1385.74 269.801 1385.95 270.885 1385.95 272.198V282H1383.58V272.358C1383.58 271.147 1383.27 270.203 1382.64 269.526C1382.01 268.843 1381.15 268.502 1380.05 268.502C1379.29 268.502 1378.61 268.666 1378.02 268.994C1377.43 269.322 1376.96 269.801 1376.62 270.43C1376.28 271.06 1376.11 271.823 1376.11 272.72ZM1393.69 282.362C1392.71 282.362 1391.83 282.177 1391.03 281.809C1390.23 281.434 1389.6 280.895 1389.13 280.192C1388.66 279.482 1388.43 278.625 1388.43 277.621C1388.43 276.737 1388.6 276.021 1388.95 275.472C1389.3 274.916 1389.77 274.481 1390.35 274.166C1390.93 273.852 1391.57 273.617 1392.28 273.463C1392.99 273.303 1393.7 273.175 1394.42 273.082C1395.35 272.961 1396.11 272.871 1396.7 272.81C1397.28 272.743 1397.71 272.633 1397.98 272.479C1398.26 272.325 1398.39 272.057 1398.39 271.676V271.595C1398.39 270.604 1398.12 269.834 1397.58 269.285C1397.04 268.736 1396.23 268.462 1395.14 268.462C1394.01 268.462 1393.12 268.709 1392.48 269.205C1391.83 269.7 1391.38 270.229 1391.12 270.792L1388.87 269.988C1389.27 269.051 1389.81 268.321 1390.48 267.799C1391.15 267.27 1391.89 266.902 1392.69 266.694C1393.49 266.48 1394.28 266.373 1395.06 266.373C1395.55 266.373 1396.12 266.433 1396.77 266.553C1397.41 266.667 1398.04 266.905 1398.64 267.267C1399.25 267.628 1399.76 268.174 1400.16 268.904C1400.56 269.633 1400.76 270.611 1400.76 271.836V282H1398.39V279.911H1398.27C1398.11 280.246 1397.84 280.604 1397.47 280.986C1397.09 281.367 1396.59 281.692 1395.97 281.96C1395.35 282.228 1394.59 282.362 1393.69 282.362ZM1394.05 280.232C1394.99 280.232 1395.78 280.048 1396.42 279.68C1397.07 279.312 1397.56 278.836 1397.89 278.254C1398.23 277.671 1398.39 277.059 1398.39 276.416V274.247C1398.29 274.367 1398.07 274.478 1397.73 274.578C1397.39 274.672 1397.01 274.755 1396.56 274.829C1396.13 274.896 1395.7 274.956 1395.29 275.01C1394.88 275.057 1394.55 275.097 1394.29 275.13C1393.68 275.211 1393.1 275.341 1392.57 275.522C1392.04 275.696 1391.61 275.961 1391.28 276.316C1390.96 276.664 1390.8 277.139 1390.8 277.742C1390.8 278.565 1391.1 279.188 1391.71 279.61C1392.33 280.025 1393.11 280.232 1394.05 280.232ZM1406.33 261.431V282H1403.96V261.431H1406.33ZM1411.06 287.785C1410.66 287.785 1410.3 287.751 1409.99 287.684C1409.67 287.624 1409.46 287.564 1409.34 287.504L1409.94 285.415C1410.52 285.562 1411.02 285.616 1411.47 285.575C1411.91 285.535 1412.3 285.338 1412.64 284.983C1412.99 284.635 1413.31 284.069 1413.6 283.286L1414.04 282.08L1408.33 266.574H1410.9L1415.16 278.867H1415.32L1419.58 266.574H1422.15L1415.6 284.25C1415.31 285.046 1414.94 285.706 1414.51 286.228C1414.07 286.757 1413.57 287.149 1412.99 287.403C1412.42 287.658 1411.78 287.785 1411.06 287.785ZM1435.08 270.028L1432.95 270.631C1432.81 270.276 1432.62 269.931 1432.35 269.597C1432.1 269.255 1431.75 268.974 1431.31 268.753C1430.87 268.532 1430.3 268.422 1429.61 268.422C1428.67 268.422 1427.88 268.639 1427.25 269.074C1426.63 269.503 1426.32 270.049 1426.32 270.711C1426.32 271.301 1426.53 271.766 1426.96 272.107C1427.39 272.449 1428.06 272.733 1428.97 272.961L1431.26 273.523C1432.64 273.858 1433.67 274.37 1434.34 275.06C1435.02 275.743 1435.36 276.624 1435.36 277.701C1435.36 278.585 1435.1 279.375 1434.59 280.072C1434.09 280.768 1433.39 281.317 1432.49 281.719C1431.58 282.121 1430.53 282.321 1429.33 282.321C1427.76 282.321 1426.46 281.98 1425.42 281.297C1424.39 280.614 1423.74 279.616 1423.47 278.304L1425.72 277.742C1425.93 278.572 1426.34 279.195 1426.93 279.61C1427.53 280.025 1428.32 280.232 1429.29 280.232C1430.4 280.232 1431.27 279.998 1431.92 279.529C1432.58 279.054 1432.91 278.485 1432.91 277.822C1432.91 277.286 1432.72 276.838 1432.34 276.476C1431.97 276.108 1431.39 275.833 1430.62 275.653L1428.05 275.05C1426.63 274.715 1425.6 274.196 1424.93 273.493C1424.28 272.784 1423.95 271.896 1423.95 270.832C1423.95 269.961 1424.19 269.192 1424.68 268.522C1425.18 267.852 1425.85 267.327 1426.7 266.945C1427.56 266.564 1428.53 266.373 1429.61 266.373C1431.14 266.373 1432.34 266.707 1433.21 267.377C1434.09 268.047 1434.71 268.93 1435.08 270.028ZM1437.79 282V266.574H1440.16V282H1437.79ZM1439 264.003C1438.54 264.003 1438.14 263.845 1437.8 263.53C1437.48 263.216 1437.31 262.837 1437.31 262.396C1437.31 261.954 1437.48 261.575 1437.8 261.261C1438.14 260.946 1438.54 260.789 1439 260.789C1439.46 260.789 1439.86 260.946 1440.18 261.261C1440.52 261.575 1440.69 261.954 1440.69 262.396C1440.69 262.837 1440.52 263.216 1440.18 263.53C1439.86 263.845 1439.46 264.003 1439 264.003ZM1454.3 270.028L1452.17 270.631C1452.04 270.276 1451.84 269.931 1451.58 269.597C1451.33 269.255 1450.98 268.974 1450.54 268.753C1450.09 268.532 1449.53 268.422 1448.84 268.422C1447.89 268.422 1447.11 268.639 1446.48 269.074C1445.85 269.503 1445.54 270.049 1445.54 270.711C1445.54 271.301 1445.76 271.766 1446.19 272.107C1446.61 272.449 1447.28 272.733 1448.19 272.961L1450.48 273.523C1451.86 273.858 1452.89 274.37 1453.57 275.06C1454.24 275.743 1454.58 276.624 1454.58 277.701C1454.58 278.585 1454.33 279.375 1453.82 280.072C1453.32 280.768 1452.61 281.317 1451.71 281.719C1450.81 282.121 1449.75 282.321 1448.56 282.321C1446.98 282.321 1445.68 281.98 1444.65 281.297C1443.62 280.614 1442.97 279.616 1442.69 278.304L1444.94 277.742C1445.16 278.572 1445.56 279.195 1446.16 279.61C1446.76 280.025 1447.55 280.232 1448.52 280.232C1449.62 280.232 1450.5 279.998 1451.15 279.529C1451.8 279.054 1452.13 278.485 1452.13 277.822C1452.13 277.286 1451.94 276.838 1451.57 276.476C1451.19 276.108 1450.62 275.833 1449.84 275.653L1447.27 275.05C1445.86 274.715 1444.82 274.196 1444.16 273.493C1443.5 272.784 1443.17 271.896 1443.17 270.832C1443.17 269.961 1443.42 269.192 1443.91 268.522C1444.4 267.852 1445.07 267.327 1445.93 266.945C1446.78 266.564 1447.75 266.373 1448.84 266.373C1450.36 266.373 1451.56 266.707 1452.43 267.377C1453.31 268.047 1453.93 268.93 1454.3 270.028Z" fill="black"/>
<path d="M1158.95 263.115C1165.21 263.115 1170.28 268.188 1170.28 274.446V282.723C1170.28 283.024 1170.16 283.313 1169.95 283.526C1169.74 283.74 1169.45 283.859 1169.15 283.859H1148.76C1148.45 283.859 1148.17 283.74 1147.95 283.526C1147.74 283.313 1147.62 283.024 1147.62 282.723V274.446C1147.62 268.188 1152.69 263.115 1158.95 263.115ZM1157.96 256.863H1159.95C1160.02 256.863 1160.09 256.893 1160.15 256.947C1160.2 257 1160.23 257.072 1160.23 257.147V260.557C1160.23 260.633 1160.2 260.705 1160.15 260.758C1160.09 260.812 1160.02 260.842 1159.95 260.842H1157.96C1157.88 260.842 1157.81 260.812 1157.75 260.758C1157.7 260.705 1157.67 260.633 1157.67 260.557V257.147C1157.67 257.072 1157.7 257 1157.75 256.947C1157.81 256.893 1157.88 256.863 1157.96 256.863ZM1147.06 261.256C1147.09 261.229 1147.12 261.208 1147.15 261.194C1147.19 261.18 1147.22 261.172 1147.26 261.172C1147.3 261.172 1147.34 261.18 1147.37 261.194C1147.4 261.208 1147.44 261.229 1147.46 261.256L1149.87 263.667C1149.93 263.72 1149.96 263.793 1149.96 263.868C1149.96 263.943 1149.93 264.015 1149.87 264.069L1148.47 265.475C1148.41 265.529 1148.34 265.559 1148.27 265.559C1148.19 265.559 1148.12 265.529 1148.06 265.475L1145.65 263.064C1145.6 263.011 1145.57 262.939 1145.57 262.863C1145.57 262.788 1145.6 262.716 1145.65 262.662L1147.06 261.256H1147.06ZM1170.84 261.256L1172.25 262.662C1172.3 262.716 1172.33 262.788 1172.33 262.863C1172.33 262.938 1172.3 263.011 1172.25 263.064L1169.84 265.476C1169.81 265.502 1169.78 265.523 1169.75 265.537C1169.71 265.552 1169.68 265.559 1169.64 265.559C1169.6 265.559 1169.56 265.552 1169.53 265.537C1169.5 265.523 1169.46 265.502 1169.44 265.476L1168.03 264.069C1168.01 264.043 1167.98 264.011 1167.97 263.977C1167.96 263.942 1167.95 263.905 1167.95 263.868C1167.95 263.831 1167.96 263.794 1167.97 263.759C1167.98 263.725 1168.01 263.693 1168.03 263.667L1170.44 261.256C1170.5 261.203 1170.57 261.173 1170.64 261.173C1170.72 261.173 1170.79 261.203 1170.84 261.256ZM1147.58 286.133H1170.32C1170.62 286.133 1170.91 286.253 1171.12 286.466C1171.33 286.679 1171.45 286.968 1171.45 287.269V288.122C1171.45 288.197 1171.42 288.27 1171.37 288.323C1171.32 288.376 1171.25 288.406 1171.17 288.406H1146.73C1146.66 288.406 1146.58 288.376 1146.53 288.323C1146.48 288.27 1146.45 288.197 1146.45 288.122V287.269C1146.45 286.968 1146.57 286.679 1146.78 286.466C1146.99 286.253 1147.28 286.133 1147.58 286.133ZM1152.84 274.873V283.859H1155.11V274.873H1152.84Z" fill="url(#paint9_linear_157_962)"/>
<path d="M613.491 440V419.431H620.441C622.048 419.431 623.367 419.706 624.398 420.255C625.429 420.797 626.192 421.544 626.688 422.495C627.183 423.445 627.431 424.527 627.431 425.739C627.431 426.95 627.183 428.025 626.688 428.962C626.192 429.9 625.432 430.636 624.408 431.172C623.383 431.701 622.074 431.965 620.481 431.965H614.857V429.716H620.4C621.499 429.716 622.382 429.555 623.052 429.234C623.728 428.912 624.217 428.457 624.518 427.868C624.826 427.272 624.98 426.562 624.98 425.739C624.98 424.915 624.826 424.195 624.518 423.579C624.21 422.963 623.718 422.488 623.042 422.153C622.366 421.812 621.472 421.641 620.36 421.641H615.981V440H613.491ZM623.172 430.76L628.234 440H625.342L620.36 430.76H623.172ZM630.128 440V424.574H632.499V440H630.128ZM631.334 422.003C630.872 422.003 630.473 421.845 630.139 421.53C629.81 421.216 629.646 420.837 629.646 420.396C629.646 419.954 629.81 419.575 630.139 419.261C630.473 418.946 630.872 418.789 631.334 418.789C631.796 418.789 632.191 418.946 632.519 419.261C632.854 419.575 633.021 419.954 633.021 420.396C633.021 420.837 632.854 421.216 632.519 421.53C632.191 421.845 631.796 422.003 631.334 422.003ZM646.636 428.028L644.506 428.631C644.373 428.276 644.175 427.931 643.914 427.597C643.66 427.255 643.311 426.974 642.869 426.753C642.428 426.532 641.862 426.422 641.172 426.422C640.228 426.422 639.441 426.639 638.812 427.074C638.189 427.503 637.878 428.049 637.878 428.711C637.878 429.301 638.092 429.766 638.521 430.107C638.949 430.449 639.619 430.733 640.529 430.961L642.819 431.523C644.198 431.858 645.226 432.37 645.902 433.06C646.579 433.743 646.917 434.624 646.917 435.701C646.917 436.585 646.662 437.375 646.154 438.072C645.651 438.768 644.948 439.317 644.044 439.719C643.141 440.121 642.089 440.321 640.891 440.321C639.317 440.321 638.015 439.98 636.984 439.297C635.953 438.614 635.3 437.616 635.026 436.304L637.275 435.742C637.49 436.572 637.895 437.195 638.491 437.61C639.093 438.025 639.88 438.232 640.851 438.232C641.956 438.232 642.833 437.998 643.482 437.529C644.138 437.054 644.466 436.485 644.466 435.822C644.466 435.286 644.279 434.838 643.904 434.476C643.529 434.108 642.953 433.833 642.176 433.653L639.605 433.05C638.193 432.715 637.155 432.196 636.492 431.493C635.836 430.784 635.508 429.896 635.508 428.832C635.508 427.961 635.752 427.192 636.241 426.522C636.736 425.852 637.409 425.327 638.26 424.945C639.117 424.564 640.087 424.373 641.172 424.373C642.699 424.373 643.897 424.707 644.768 425.377C645.645 426.047 646.267 426.93 646.636 428.028ZM651.563 434.376L651.523 431.443H652.005L658.754 424.574H661.687L654.496 431.845H654.295L651.563 434.376ZM649.353 440V419.431H651.724V440H649.353ZM659.156 440L653.13 432.367L654.817 430.72L662.169 440H659.156ZM670.75 419.431H673.723L680.713 436.505H680.954L687.944 419.431H690.917V440H688.587V424.373H688.386L681.959 440H679.709L673.281 424.373H673.08V440H670.75V419.431ZM698.998 440.362C698.02 440.362 697.133 440.177 696.337 439.809C695.54 439.434 694.907 438.895 694.438 438.192C693.97 437.482 693.735 436.625 693.735 435.621C693.735 434.737 693.909 434.021 694.258 433.472C694.606 432.916 695.071 432.481 695.654 432.166C696.236 431.852 696.879 431.617 697.582 431.463C698.292 431.303 699.005 431.175 699.721 431.082C700.659 430.961 701.418 430.871 702.001 430.81C702.59 430.743 703.019 430.633 703.287 430.479C703.561 430.325 703.698 430.057 703.698 429.676V429.595C703.698 428.604 703.427 427.834 702.885 427.285C702.349 426.736 701.536 426.462 700.444 426.462C699.313 426.462 698.426 426.709 697.783 427.205C697.14 427.7 696.688 428.229 696.427 428.792L694.177 427.988C694.579 427.051 695.115 426.321 695.784 425.799C696.46 425.27 697.197 424.902 697.994 424.694C698.797 424.48 699.587 424.373 700.364 424.373C700.859 424.373 701.429 424.433 702.071 424.553C702.721 424.667 703.347 424.905 703.949 425.267C704.559 425.628 705.064 426.174 705.466 426.904C705.868 427.633 706.068 428.611 706.068 429.836V440H703.698V437.911H703.578C703.417 438.246 703.149 438.604 702.774 438.986C702.399 439.367 701.901 439.692 701.278 439.96C700.655 440.228 699.895 440.362 698.998 440.362ZM699.36 438.232C700.297 438.232 701.087 438.048 701.73 437.68C702.379 437.312 702.868 436.836 703.196 436.254C703.531 435.671 703.698 435.059 703.698 434.416V432.247C703.598 432.367 703.377 432.478 703.035 432.578C702.701 432.672 702.312 432.755 701.87 432.829C701.435 432.896 701.01 432.956 700.595 433.01C700.186 433.057 699.855 433.097 699.601 433.13C698.985 433.211 698.409 433.341 697.873 433.522C697.344 433.696 696.916 433.961 696.588 434.316C696.266 434.664 696.106 435.139 696.106 435.742C696.106 436.565 696.41 437.188 697.02 437.61C697.636 438.025 698.416 438.232 699.36 438.232ZM711.634 430.72V440H709.263V424.574H711.553V426.984H711.754C712.116 426.201 712.665 425.571 713.401 425.096C714.138 424.614 715.088 424.373 716.253 424.373C717.298 424.373 718.212 424.587 718.995 425.015C719.779 425.437 720.388 426.08 720.823 426.944C721.258 427.801 721.476 428.885 721.476 430.198V440H719.106V430.358C719.106 429.147 718.791 428.203 718.162 427.526C717.532 426.843 716.669 426.502 715.57 426.502C714.814 426.502 714.138 426.666 713.542 426.994C712.953 427.322 712.487 427.801 712.146 428.43C711.804 429.06 711.634 429.823 711.634 430.72ZM729.215 440.362C728.238 440.362 727.351 440.177 726.554 439.809C725.757 439.434 725.124 438.895 724.656 438.192C724.187 437.482 723.953 436.625 723.953 435.621C723.953 434.737 724.127 434.021 724.475 433.472C724.823 432.916 725.288 432.481 725.871 432.166C726.453 431.852 727.096 431.617 727.799 431.463C728.509 431.303 729.222 431.175 729.938 431.082C730.876 430.961 731.636 430.871 732.218 430.81C732.807 430.743 733.236 430.633 733.504 430.479C733.778 430.325 733.916 430.057 733.916 429.676V429.595C733.916 428.604 733.644 427.834 733.102 427.285C732.566 426.736 731.753 426.462 730.662 426.462C729.53 426.462 728.643 426.709 728 427.205C727.357 427.7 726.905 428.229 726.644 428.792L724.395 427.988C724.796 427.051 725.332 426.321 726.002 425.799C726.678 425.27 727.414 424.902 728.211 424.694C729.014 424.48 729.805 424.373 730.581 424.373C731.077 424.373 731.646 424.433 732.289 424.553C732.938 424.667 733.564 424.905 734.167 425.267C734.776 425.628 735.281 426.174 735.683 426.904C736.085 427.633 736.286 428.611 736.286 429.836V440H733.916V437.911H733.795C733.634 438.246 733.367 438.604 732.992 438.986C732.617 439.367 732.118 439.692 731.495 439.96C730.872 440.228 730.113 440.362 729.215 440.362ZM729.577 438.232C730.514 438.232 731.304 438.048 731.947 437.68C732.597 437.312 733.085 436.836 733.413 436.254C733.748 435.671 733.916 435.059 733.916 434.416V432.247C733.815 432.367 733.594 432.478 733.253 432.578C732.918 432.672 732.53 432.755 732.088 432.829C731.653 432.896 731.227 432.956 730.812 433.01C730.404 433.057 730.072 433.097 729.818 433.13C729.202 433.211 728.626 433.341 728.091 433.522C727.562 433.696 727.133 433.961 726.805 434.316C726.484 434.664 726.323 435.139 726.323 435.742C726.323 436.565 726.628 437.188 727.237 437.61C727.853 438.025 728.633 438.232 729.577 438.232ZM745.707 446.106C744.563 446.106 743.578 445.959 742.755 445.664C741.931 445.376 741.245 444.995 740.696 444.519C740.154 444.051 739.722 443.549 739.4 443.013L741.288 441.687C741.503 441.968 741.774 442.29 742.102 442.651C742.43 443.02 742.879 443.338 743.448 443.606C744.024 443.88 744.777 444.017 745.707 444.017C746.953 444.017 747.981 443.716 748.791 443.113C749.601 442.511 750.006 441.567 750.006 440.281V437.148H749.805C749.631 437.429 749.383 437.777 749.062 438.192C748.747 438.601 748.292 438.966 747.696 439.287C747.107 439.602 746.31 439.759 745.306 439.759C744.06 439.759 742.942 439.464 741.951 438.875C740.967 438.286 740.187 437.429 739.611 436.304C739.042 435.179 738.758 433.813 738.758 432.206C738.758 430.626 739.035 429.25 739.591 428.079C740.147 426.9 740.92 425.99 741.911 425.347C742.902 424.697 744.047 424.373 745.346 424.373C746.35 424.373 747.147 424.54 747.736 424.875C748.332 425.203 748.787 425.578 749.102 426C749.423 426.415 749.671 426.756 749.845 427.024H750.086V424.574H752.376V440.442C752.376 441.768 752.075 442.846 751.472 443.676C750.876 444.513 750.073 445.125 749.062 445.514C748.058 445.909 746.939 446.106 745.707 446.106ZM745.627 437.63C746.578 437.63 747.381 437.412 748.038 436.977C748.694 436.542 749.192 435.916 749.534 435.099C749.875 434.282 750.046 433.305 750.046 432.166C750.046 431.055 749.879 430.074 749.544 429.224C749.209 428.373 748.714 427.707 748.058 427.225C747.401 426.743 746.591 426.502 745.627 426.502C744.623 426.502 743.786 426.756 743.116 427.265C742.453 427.774 741.955 428.457 741.62 429.314C741.292 430.171 741.128 431.122 741.128 432.166C741.128 433.238 741.295 434.185 741.63 435.009C741.971 435.825 742.474 436.468 743.136 436.937C743.806 437.399 744.636 437.63 745.627 437.63ZM762.051 440.321C760.565 440.321 759.283 439.993 758.205 439.337C757.134 438.674 756.307 437.75 755.724 436.565C755.148 435.373 754.86 433.987 754.86 432.407C754.86 430.827 755.148 429.435 755.724 428.229C756.307 427.017 757.117 426.073 758.155 425.397C759.199 424.714 760.418 424.373 761.81 424.373C762.614 424.373 763.407 424.507 764.191 424.774C764.974 425.042 765.687 425.477 766.33 426.08C766.973 426.676 767.485 427.466 767.866 428.45C768.248 429.435 768.439 430.646 768.439 432.086V433.09H756.548V431.041H766.029C766.029 430.171 765.854 429.394 765.506 428.711C765.165 428.028 764.676 427.489 764.04 427.094C763.411 426.699 762.667 426.502 761.81 426.502C760.866 426.502 760.05 426.736 759.36 427.205C758.677 427.667 758.151 428.269 757.783 429.013C757.415 429.756 757.231 430.553 757.231 431.403V432.769C757.231 433.934 757.432 434.921 757.833 435.732C758.242 436.535 758.807 437.148 759.531 437.57C760.254 437.985 761.094 438.192 762.051 438.192C762.674 438.192 763.237 438.105 763.739 437.931C764.248 437.75 764.686 437.482 765.054 437.128C765.423 436.766 765.707 436.317 765.908 435.782L768.198 436.425C767.957 437.201 767.552 437.884 766.983 438.473C766.414 439.056 765.711 439.511 764.874 439.839C764.037 440.161 763.096 440.321 762.051 440.321ZM770.913 440V424.574H773.203V426.984H773.404C773.725 426.16 774.244 425.521 774.961 425.066C775.677 424.604 776.537 424.373 777.542 424.373C778.559 424.373 779.406 424.604 780.083 425.066C780.766 425.521 781.298 426.16 781.68 426.984H781.84C782.235 426.187 782.828 425.554 783.618 425.086C784.408 424.61 785.355 424.373 786.46 424.373C787.839 424.373 788.968 424.805 789.845 425.668C790.722 426.525 791.16 427.861 791.16 429.676V440H788.79V429.676C788.79 428.537 788.479 427.724 787.856 427.235C787.233 426.746 786.5 426.502 785.657 426.502C784.572 426.502 783.732 426.83 783.136 427.486C782.54 428.136 782.242 428.959 782.242 429.957V440H779.832V429.435C779.832 428.557 779.547 427.851 778.978 427.315C778.409 426.773 777.676 426.502 776.778 426.502C776.162 426.502 775.587 426.666 775.051 426.994C774.522 427.322 774.094 427.777 773.765 428.36C773.444 428.936 773.283 429.602 773.283 430.358V440H770.913ZM800.831 440.321C799.344 440.321 798.062 439.993 796.984 439.337C795.913 438.674 795.086 437.75 794.503 436.565C793.928 435.373 793.64 433.987 793.64 432.407C793.64 430.827 793.928 429.435 794.503 428.229C795.086 427.017 795.896 426.073 796.934 425.397C797.978 424.714 799.197 424.373 800.59 424.373C801.393 424.373 802.186 424.507 802.97 424.774C803.753 425.042 804.466 425.477 805.109 426.08C805.752 426.676 806.264 427.466 806.646 428.45C807.027 429.435 807.218 430.646 807.218 432.086V433.09H795.327V431.041H804.808C804.808 430.171 804.634 429.394 804.286 428.711C803.944 428.028 803.455 427.489 802.819 427.094C802.19 426.699 801.447 426.502 800.59 426.502C799.646 426.502 798.829 426.736 798.139 427.205C797.456 427.667 796.931 428.269 796.562 429.013C796.194 429.756 796.01 430.553 796.01 431.403V432.769C796.01 433.934 796.211 434.921 796.612 435.732C797.021 436.535 797.587 437.148 798.31 437.57C799.033 437.985 799.873 438.192 800.831 438.192C801.453 438.192 802.016 438.105 802.518 437.931C803.027 437.75 803.465 437.482 803.834 437.128C804.202 436.766 804.486 436.317 804.687 435.782L806.977 436.425C806.736 437.201 806.331 437.884 805.762 438.473C805.193 439.056 804.49 439.511 803.653 439.839C802.816 440.161 801.875 440.321 800.831 440.321ZM812.063 430.72V440H809.692V424.574H811.982V426.984H812.183C812.545 426.201 813.094 425.571 813.83 425.096C814.567 424.614 815.517 424.373 816.682 424.373C817.727 424.373 818.641 424.587 819.424 425.015C820.208 425.437 820.817 426.08 821.252 426.944C821.687 427.801 821.905 428.885 821.905 430.198V440H819.535V430.358C819.535 429.147 819.22 428.203 818.591 427.526C817.961 426.843 817.098 426.502 816 426.502C815.243 426.502 814.567 426.666 813.971 426.994C813.382 427.322 812.916 427.801 812.575 428.43C812.233 429.06 812.063 429.823 812.063 430.72ZM831.814 424.574V426.582H823.819V424.574H831.814ZM826.149 420.878H828.52V435.581C828.52 436.251 828.617 436.753 828.811 437.087C829.012 437.416 829.266 437.636 829.574 437.75C829.889 437.857 830.22 437.911 830.568 437.911C830.83 437.911 831.044 437.898 831.211 437.871C831.379 437.837 831.512 437.811 831.613 437.79L832.095 439.92C831.934 439.98 831.71 440.04 831.422 440.1C831.134 440.167 830.769 440.201 830.327 440.201C829.658 440.201 829.002 440.057 828.359 439.769C827.723 439.481 827.194 439.043 826.772 438.453C826.357 437.864 826.149 437.121 826.149 436.224V420.878Z" fill="black"/>
<path d="M581.482 421.314C587.74 421.314 592.813 426.387 592.813 432.645V440.922C592.813 441.223 592.693 441.513 592.48 441.726C592.267 441.939 591.978 442.059 591.676 442.059H571.287C570.986 442.059 570.697 441.939 570.483 441.726C570.27 441.513 570.15 441.223 570.15 440.922V432.645C570.15 426.387 575.224 421.314 581.482 421.314ZM580.487 415.062H582.476C582.552 415.062 582.624 415.092 582.677 415.146C582.731 415.199 582.76 415.271 582.76 415.347V418.757C582.76 418.832 582.731 418.904 582.677 418.958C582.624 419.011 582.552 419.041 582.476 419.041H580.487C580.412 419.041 580.339 419.011 580.286 418.958C580.233 418.904 580.203 418.832 580.203 418.757V415.347C580.203 415.271 580.233 415.199 580.286 415.146C580.339 415.092 580.412 415.062 580.487 415.062ZM569.591 419.455C569.617 419.429 569.649 419.408 569.683 419.393C569.718 419.379 569.755 419.372 569.792 419.372C569.829 419.372 569.866 419.379 569.901 419.393C569.935 419.408 569.967 419.429 569.993 419.455L572.404 421.866C572.458 421.92 572.487 421.992 572.487 422.067C572.487 422.142 572.458 422.215 572.404 422.268L570.998 423.675C570.944 423.728 570.872 423.758 570.797 423.758C570.721 423.758 570.649 423.728 570.596 423.675L568.185 421.263C568.131 421.21 568.102 421.138 568.102 421.063C568.102 420.987 568.131 420.915 568.185 420.862L569.591 419.455H569.591ZM593.376 419.455L594.783 420.862C594.836 420.915 594.866 420.987 594.866 421.062C594.866 421.138 594.836 421.21 594.783 421.263L592.371 423.675C592.345 423.701 592.314 423.722 592.279 423.737C592.245 423.751 592.208 423.758 592.17 423.758C592.133 423.758 592.096 423.751 592.062 423.737C592.027 423.722 591.996 423.701 591.969 423.675L590.563 422.268C590.536 422.242 590.515 422.211 590.501 422.176C590.487 422.142 590.479 422.105 590.479 422.067C590.479 422.03 590.487 421.993 590.501 421.958C590.515 421.924 590.536 421.893 590.563 421.866L592.974 419.455C593.028 419.402 593.1 419.372 593.175 419.372C593.25 419.372 593.323 419.402 593.376 419.455ZM570.115 444.332H592.849C593.15 444.332 593.439 444.452 593.652 444.665C593.865 444.878 593.985 445.167 593.985 445.469V446.321C593.985 446.397 593.955 446.469 593.902 446.522C593.849 446.575 593.776 446.605 593.701 446.605H569.262C569.187 446.605 569.115 446.575 569.062 446.522C569.008 446.469 568.978 446.397 568.978 446.321V445.469C568.978 445.167 569.098 444.878 569.311 444.665C569.524 444.452 569.813 444.332 570.115 444.332ZM575.372 433.072V442.059H577.645V433.072H575.372Z" fill="url(#paint10_linear_157_962)"/>
<defs>
<filter id="filter0_dddddddd_157_962" x="375.785" y="95.3165" width="1367.71" height="1174.98" filterUnits="userSpaceOnUse" color-interpolation-filters="sRGB">
<feFlood flood-opacity="0" result="BackgroundImageFix"/>
<feColorMatrix in="SourceAlpha" type="matrix" values="0 0 0 0 0 0 0 0 0 0 0 0 0 0 0 0 0 0 127 0" result="hardAlpha"/>
<feOffset dy="2.37795"/>
<feGaussianBlur stdDeviation="2.84165"/>
<feColorMatrix type="matrix" values="0 0 0 0 0 0 0 0 0 0 0 0 0 0 0 0 0 0 0.0167767 0"/>
<feBlend mode="normal" in2="BackgroundImageFix" result="effect1_dropShadow_157_962"/>
<feColorMatrix in="SourceAlpha" type="matrix" values="0 0 0 0 0 0 0 0 0 0 0 0 0 0 0 0 0 0 127 0" result="hardAlpha"/>
<feOffset dy="5.40289"/>
<feGaussianBlur stdDeviation="6.45645"/>
<feColorMatrix type="matrix" values="0 0 0 0 0 0 0 0 0 0 0 0 0 0 0 0 0 0 0.0243888 0"/>
<feBlend mode="normal" in2="effect1_dropShadow_157_962" result="effect2_dropShadow_157_962"/>
<feColorMatrix in="SourceAlpha" type="matrix" values="0 0 0 0 0 0 0 0 0 0 0 0 0 0 0 0 0 0 127 0" result="hardAlpha"/>
<feOffset dy="9.40349"/>
<feGaussianBlur stdDeviation="11.2372"/>
<feColorMatrix type="matrix" values="0 0 0 0 0 0 0 0 0 0 0 0 0 0 0 0 0 0 0.0300374 0"/>
<feBlend mode="normal" in2="effect2_dropShadow_157_962" result="effect3_dropShadow_157_962"/>
<feColorMatrix in="SourceAlpha" type="matrix" values="0 0 0 0 0 0 0 0 0 0 0 0 0 0 0 0 0 0 127 0" result="hardAlpha"/>
<feOffset dy="14.9383"/>
<feGaussianBlur stdDeviation="17.8513"/>
<feColorMatrix type="matrix" values="0 0 0 0 0 0 0 0 0 0 0 0 0 0 0 0 0 0 0.035 0"/>
<feBlend mode="normal" in2="effect3_dropShadow_157_962" result="effect4_dropShadow_157_962"/>
<feColorMatrix in="SourceAlpha" type="matrix" values="0 0 0 0 0 0 0 0 0 0 0 0 0 0 0 0 0 0 127 0" result="hardAlpha"/>
<feOffset dy="23.0487"/>
<feGaussianBlur stdDeviation="27.5432"/>
<feColorMatrix type="matrix" values="0 0 0 0 0 0 0 0 0 0 0 0 0 0 0 0 0 0 0.0399626 0"/>
<feBlend mode="normal" in2="effect4_dropShadow_157_962" result="effect5_dropShadow_157_962"/>
<feColorMatrix in="SourceAlpha" type="matrix" values="0 0 0 0 0 0 0 0 0 0 0 0 0 0 0 0 0 0 127 0" result="hardAlpha"/>
<feOffset dy="35.9657"/>
<feGaussianBlur stdDeviation="42.979"/>
<feColorMatrix type="matrix" values="0 0 0 0 0 0 0 0 0 0 0 0 0 0 0 0 0 0 0.0456112 0"/>
<feBlend mode="normal" in2="effect5_dropShadow_157_962" result="effect6_dropShadow_157_962"/>
<feColorMatrix in="SourceAlpha" type="matrix" values="0 0 0 0 0 0 0 0 0 0 0 0 0 0 0 0 0 0 127 0" result="hardAlpha"/>
<feOffset dy="59.7086"/>
<feGaussianBlur stdDeviation="71.3518"/>
<feColorMatrix type="matrix" values="0 0 0 0 0 0 0 0 0 0 0 0 0 0 0 0 0 0 0.0532233 0"/>
<feBlend mode="normal" in2="effect6_dropShadow_157_962" result="effect7_dropShadow_157_962"/>
<feColorMatrix in="SourceAlpha" type="matrix" values="0 0 0 0 0 0 0 0 0 0 0 0 0 0 0 0 0 0 127 0" result="hardAlpha"/>
<feOffset dy="119.301"/>
<feGaussianBlur stdDeviation="142.564"/>
<feColorMatrix type="matrix" values="0 0 0 0 0 0 0 0 0 0 0 0 0 0 0 0 0 0 0.07 0"/>
<feBlend mode="normal" in2="effect7_dropShadow_157_962" result="effect8_dropShadow_157_962"/>
<feBlend mode="normal" in="SourceGraphic" in2="effect8_dropShadow_157_962" result="shape"/>
</filter>
<filter id="filter1_bddddd_157_962" x="0.692993" y="-565.916" width="1396.61" height="1135.58" filterUnits="userSpaceOnUse" color-interpolation-filters="sRGB">
<feFlood flood-opacity="0" result="BackgroundImageFix"/>
<feGaussianBlur in="BackgroundImageFix" stdDeviation="18.3082"/>
<feComposite in2="SourceAlpha" operator="in" result="effect1_backgroundBlur_157_962"/>
<feColorMatrix in="SourceAlpha" type="matrix" values="0 0 0 0 0 0 0 0 0 0 0 0 0 0 0 0 0 0 127 0" result="hardAlpha"/>
<feOffset dy="16.6584"/>
<feGaussianBlur stdDeviation="15.2656"/>
<feColorMatrix type="matrix" values="0 0 0 0 0.0627451 0 0 0 0 0.376471 0 0 0 0 0.203922 0 0 0 0.105073 0"/>
<feBlend mode="normal" in2="effect1_backgroundBlur_157_962" result="effect2_dropShadow_157_962"/>
<feColorMatrix in="SourceAlpha" type="matrix" values="0 0 0 0 0 0 0 0 0 0 0 0 0 0 0 0 0 0 127 0" result="hardAlpha"/>
<feOffset dy="14.2682"/>
<feGaussianBlur stdDeviation="33.6867"/>
<feColorMatrix type="matrix" values="0 0 0 0 0.0627451 0 0 0 0 0.376471 0 0 0 0 0.203922 0 0 0 0.123572 0"/>
<feBlend mode="normal" in2="effect2_dropShadow_157_962" result="effect3_dropShadow_157_962"/>
<feColorMatrix in="SourceAlpha" type="matrix" values="0 0 0 0 0 0 0 0 0 0 0 0 0 0 0 0 0 0 127 0" result="hardAlpha"/>
<feOffset dy="-19.6971"/>
<feGaussianBlur stdDeviation="60.1819"/>
<feColorMatrix type="matrix" values="0 0 0 0 0.0627451 0 0 0 0 0.376471 0 0 0 0 0.203922 0 0 0 0.129561 0"/>
<feBlend mode="normal" in2="effect3_dropShadow_157_962" result="effect4_dropShadow_157_962"/>
<feColorMatrix in="SourceAlpha" type="matrix" values="0 0 0 0 0 0 0 0 0 0 0 0 0 0 0 0 0 0 127 0" result="hardAlpha"/>
<feOffset dy="-117.941"/>
<feGaussianBlur stdDeviation="109.143"/>
<feColorMatrix type="matrix" values="0 0 0 0 0.0627451 0 0 0 0 0.376471 0 0 0 0 0.203922 0 0 0 0.134813 0"/>
<feBlend mode="normal" in2="effect4_dropShadow_157_962" result="effect5_dropShadow_157_962"/>
<feColorMatrix in="SourceAlpha" type="matrix" values="0 0 0 0 0 0 0 0 0 0 0 0 0 0 0 0 0 0 127 0" result="hardAlpha"/>
<feOffset dy="-429.609"/>
<feGaussianBlur stdDeviation="264.654"/>
<feColorMatrix type="matrix" values="0 0 0 0 0.0627451 0 0 0 0 0.376471 0 0 0 0 0.203922 0 0 0 0.17 0"/>
<feBlend mode="normal" in2="effect5_dropShadow_157_962" result="effect6_dropShadow_157_962"/>
<feBlend mode="normal" in="SourceGraphic" in2="effect6_dropShadow_157_962" result="shape"/>
</filter>
<filter id="filter2_bddddd_157_962" x="775.56" y="-400.025" width="1341.36" height="1134.6" filterUnits="userSpaceOnUse" color-interpolation-filters="sRGB">
<feFlood flood-opacity="0" result="BackgroundImageFix"/>
<feGaussianBlur in="BackgroundImageFix" stdDeviation="18.3082"/>
<feComposite in2="SourceAlpha" operator="in" result="effect1_backgroundBlur_157_962"/>
<feColorMatrix in="SourceAlpha" type="matrix" values="0 0 0 0 0 0 0 0 0 0 0 0 0 0 0 0 0 0 127 0" result="hardAlpha"/>
<feOffset dy="16.6584"/>
<feGaussianBlur stdDeviation="15.2656"/>
<feColorMatrix type="matrix" values="0 0 0 0 0.0627451 0 0 0 0 0.376471 0 0 0 0 0.203922 0 0 0 0.105073 0"/>
<feBlend mode="normal" in2="effect1_backgroundBlur_157_962" result="effect2_dropShadow_157_962"/>
<feColorMatrix in="SourceAlpha" type="matrix" values="0 0 0 0 0 0 0 0 0 0 0 0 0 0 0 0 0 0 127 0" result="hardAlpha"/>
<feOffset dy="14.2682"/>
<feGaussianBlur stdDeviation="33.6867"/>
<feColorMatrix type="matrix" values="0 0 0 0 0.0627451 0 0 0 0 0.376471 0 0 0 0 0.203922 0 0 0 0.123572 0"/>
<feBlend mode="normal" in2="effect2_dropShadow_157_962" result="effect3_dropShadow_157_962"/>
<feColorMatrix in="SourceAlpha" type="matrix" values="0 0 0 0 0 0 0 0 0 0 0 0 0 0 0 0 0 0 127 0" result="hardAlpha"/>
<feOffset dy="-19.6971"/>
<feGaussianBlur stdDeviation="60.1819"/>
<feColorMatrix type="matrix" values="0 0 0 0 0.0627451 0 0 0 0 0.376471 0 0 0 0 0.203922 0 0 0 0.129561 0"/>
<feBlend mode="normal" in2="effect3_dropShadow_157_962" result="effect4_dropShadow_157_962"/>
<feColorMatrix in="SourceAlpha" type="matrix" values="0 0 0 0 0 0 0 0 0 0 0 0 0 0 0 0 0 0 127 0" result="hardAlpha"/>
<feOffset dy="-117.941"/>
<feGaussianBlur stdDeviation="109.143"/>
<feColorMatrix type="matrix" values="0 0 0 0 0.0627451 0 0 0 0 0.376471 0 0 0 0 0.203922 0 0 0 0.134813 0"/>
<feBlend mode="normal" in2="effect4_dropShadow_157_962" result="effect5_dropShadow_157_962"/>
<feColorMatrix in="SourceAlpha" type="matrix" values="0 0 0 0 0 0 0 0 0 0 0 0 0 0 0 0 0 0 127 0" result="hardAlpha"/>
<feOffset dy="-429.609"/>
<feGaussianBlur stdDeviation="264.654"/>
<feColorMatrix type="matrix" values="0 0 0 0 0.0627451 0 0 0 0 0.376471 0 0 0 0 0.203922 0 0 0 0.17 0"/>
<feBlend mode="normal" in2="effect5_dropShadow_157_962" result="effect6_dropShadow_157_962"/>
<feBlend mode="normal" in="SourceGraphic" in2="effect6_dropShadow_157_962" result="shape"/>
</filter>
<filter id="filter3_dddddddd_157_962" x="1078.6" y="606.563" width="612.957" height="612.958" filterUnits="userSpaceOnUse" color-interpolation-filters="sRGB">
<feFlood flood-opacity="0" result="BackgroundImageFix"/>
<feColorMatrix in="SourceAlpha" type="matrix" values="0 0 0 0 0 0 0 0 0 0 0 0 0 0 0 0 0 0 127 0" result="hardAlpha"/>
<feOffset dy="2.37795"/>
<feGaussianBlur stdDeviation="2.84165"/>
<feColorMatrix type="matrix" values="0 0 0 0 0 0 0 0 0 0 0 0 0 0 0 0 0 0 0.0167767 0"/>
<feBlend mode="normal" in2="BackgroundImageFix" result="effect1_dropShadow_157_962"/>
<feColorMatrix in="SourceAlpha" type="matrix" values="0 0 0 0 0 0 0 0 0 0 0 0 0 0 0 0 0 0 127 0" result="hardAlpha"/>
<feOffset dy="5.40289"/>
<feGaussianBlur stdDeviation="6.45645"/>
<feColorMatrix type="matrix" values="0 0 0 0 0 0 0 0 0 0 0 0 0 0 0 0 0 0 0.0243888 0"/>
<feBlend mode="normal" in2="effect1_dropShadow_157_962" result="effect2_dropShadow_157_962"/>
<feColorMatrix in="SourceAlpha" type="matrix" values="0 0 0 0 0 0 0 0 0 0 0 0 0 0 0 0 0 0 127 0" result="hardAlpha"/>
<feOffset dy="9.40349"/>
<feGaussianBlur stdDeviation="11.2372"/>
<feColorMatrix type="matrix" values="0 0 0 0 0 0 0 0 0 0 0 0 0 0 0 0 0 0 0.0300374 0"/>
<feBlend mode="normal" in2="effect2_dropShadow_157_962" result="effect3_dropShadow_157_962"/>
<feColorMatrix in="SourceAlpha" type="matrix" values="0 0 0 0 0 0 0 0 0 0 0 0 0 0 0 0 0 0 127 0" result="hardAlpha"/>
<feOffset dy="14.9383"/>
<feGaussianBlur stdDeviation="17.8513"/>
<feColorMatrix type="matrix" values="0 0 0 0 0 0 0 0 0 0 0 0 0 0 0 0 0 0 0.035 0"/>
<feBlend mode="normal" in2="effect3_dropShadow_157_962" result="effect4_dropShadow_157_962"/>
<feColorMatrix in="SourceAlpha" type="matrix" values="0 0 0 0 0 0 0 0 0 0 0 0 0 0 0 0 0 0 127 0" result="hardAlpha"/>
<feOffset dy="23.0487"/>
<feGaussianBlur stdDeviation="27.5432"/>
<feColorMatrix type="matrix" values="0 0 0 0 0 0 0 0 0 0 0 0 0 0 0 0 0 0 0.0399626 0"/>
<feBlend mode="normal" in2="effect4_dropShadow_157_962" result="effect5_dropShadow_157_962"/>
<feColorMatrix in="SourceAlpha" type="matrix" values="0 0 0 0 0 0 0 0 0 0 0 0 0 0 0 0 0 0 127 0" result="hardAlpha"/>
<feOffset dy="35.9657"/>
<feGaussianBlur stdDeviation="42.979"/>
<feColorMatrix type="matrix" values="0 0 0 0 0 0 0 0 0 0 0 0 0 0 0 0 0 0 0.0456112 0"/>
<feBlend mode="normal" in2="effect5_dropShadow_157_962" result="effect6_dropShadow_157_962"/>
<feColorMatrix in="SourceAlpha" type="matrix" values="0 0 0 0 0 0 0 0 0 0 0 0 0 0 0 0 0 0 127 0" result="hardAlpha"/>
<feOffset dy="59.7086"/>
<feGaussianBlur stdDeviation="71.3518"/>
<feColorMatrix type="matrix" values="0 0 0 0 0 0 0 0 0 0 0 0 0 0 0 0 0 0 0.0532233 0"/>
<feBlend mode="normal" in2="effect6_dropShadow_157_962" result="effect7_dropShadow_157_962"/>
<feColorMatrix in="SourceAlpha" type="matrix" values="0 0 0 0 0 0 0 0 0 0 0 0 0 0 0 0 0 0 127 0" result="hardAlpha"/>
<feOffset dy="119.301"/>
<feGaussianBlur stdDeviation="142.564"/>
<feColorMatrix type="matrix" values="0 0 0 0 0 0 0 0 0 0 0 0 0 0 0 0 0 0 0.07 0"/>
<feBlend mode="normal" in2="effect7_dropShadow_157_962" result="effect8_dropShadow_157_962"/>
<feBlend mode="normal" in="SourceGraphic" in2="effect8_dropShadow_157_962" result="shape"/>
</filter>
<filter id="filter4_dddddddd_157_962" x="427.71" y="606.562" width="612.957" height="612.958" filterUnits="userSpaceOnUse" color-interpolation-filters="sRGB">
<feFlood flood-opacity="0" result="BackgroundImageFix"/>
<feColorMatrix in="SourceAlpha" type="matrix" values="0 0 0 0 0 0 0 0 0 0 0 0 0 0 0 0 0 0 127 0" result="hardAlpha"/>
<feOffset dy="2.37795"/>
<feGaussianBlur stdDeviation="2.84165"/>
<feColorMatrix type="matrix" values="0 0 0 0 0 0 0 0 0 0 0 0 0 0 0 0 0 0 0.0167767 0"/>
<feBlend mode="normal" in2="BackgroundImageFix" result="effect1_dropShadow_157_962"/>
<feColorMatrix in="SourceAlpha" type="matrix" values="0 0 0 0 0 0 0 0 0 0 0 0 0 0 0 0 0 0 127 0" result="hardAlpha"/>
<feOffset dy="5.40289"/>
<feGaussianBlur stdDeviation="6.45645"/>
<feColorMatrix type="matrix" values="0 0 0 0 0 0 0 0 0 0 0 0 0 0 0 0 0 0 0.0243888 0"/>
<feBlend mode="normal" in2="effect1_dropShadow_157_962" result="effect2_dropShadow_157_962"/>
<feColorMatrix in="SourceAlpha" type="matrix" values="0 0 0 0 0 0 0 0 0 0 0 0 0 0 0 0 0 0 127 0" result="hardAlpha"/>
<feOffset dy="9.40349"/>
<feGaussianBlur stdDeviation="11.2372"/>
<feColorMatrix type="matrix" values="0 0 0 0 0 0 0 0 0 0 0 0 0 0 0 0 0 0 0.0300374 0"/>
<feBlend mode="normal" in2="effect2_dropShadow_157_962" result="effect3_dropShadow_157_962"/>
<feColorMatrix in="SourceAlpha" type="matrix" values="0 0 0 0 0 0 0 0 0 0 0 0 0 0 0 0 0 0 127 0" result="hardAlpha"/>
<feOffset dy="14.9383"/>
<feGaussianBlur stdDeviation="17.8513"/>
<feColorMatrix type="matrix" values="0 0 0 0 0 0 0 0 0 0 0 0 0 0 0 0 0 0 0.035 0"/>
<feBlend mode="normal" in2="effect3_dropShadow_157_962" result="effect4_dropShadow_157_962"/>
<feColorMatrix in="SourceAlpha" type="matrix" values="0 0 0 0 0 0 0 0 0 0 0 0 0 0 0 0 0 0 127 0" result="hardAlpha"/>
<feOffset dy="23.0487"/>
<feGaussianBlur stdDeviation="27.5432"/>
<feColorMatrix type="matrix" values="0 0 0 0 0 0 0 0 0 0 0 0 0 0 0 0 0 0 0.0399626 0"/>
<feBlend mode="normal" in2="effect4_dropShadow_157_962" result="effect5_dropShadow_157_962"/>
<feColorMatrix in="SourceAlpha" type="matrix" values="0 0 0 0 0 0 0 0 0 0 0 0 0 0 0 0 0 0 127 0" result="hardAlpha"/>
<feOffset dy="35.9657"/>
<feGaussianBlur stdDeviation="42.979"/>
<feColorMatrix type="matrix" values="0 0 0 0 0 0 0 0 0 0 0 0 0 0 0 0 0 0 0.0456112 0"/>
<feBlend mode="normal" in2="effect5_dropShadow_157_962" result="effect6_dropShadow_157_962"/>
<feColorMatrix in="SourceAlpha" type="matrix" values="0 0 0 0 0 0 0 0 0 0 0 0 0 0 0 0 0 0 127 0" result="hardAlpha"/>
<feOffset dy="59.7086"/>
<feGaussianBlur stdDeviation="71.3518"/>
<feColorMatrix type="matrix" values="0 0 0 0 0 0 0 0 0 0 0 0 0 0 0 0 0 0 0.0532233 0"/>
<feBlend mode="normal" in2="effect6_dropShadow_157_962" result="effect7_dropShadow_157_962"/>
<feColorMatrix in="SourceAlpha" type="matrix" values="0 0 0 0 0 0 0 0 0 0 0 0 0 0 0 0 0 0 127 0" result="hardAlpha"/>
<feOffset dy="119.301"/>
<feGaussianBlur stdDeviation="142.564"/>
<feColorMatrix type="matrix" values="0 0 0 0 0 0 0 0 0 0 0 0 0 0 0 0 0 0 0.07 0"/>
<feBlend mode="normal" in2="effect7_dropShadow_157_962" result="effect8_dropShadow_157_962"/>
<feBlend mode="normal" in="SourceGraphic" in2="effect8_dropShadow_157_962" result="shape"/>
</filter>
<filter id="filter5_bddddd_157_962" x="573.693" y="-722.916" width="1441.61" height="1134.58" filterUnits="userSpaceOnUse" color-interpolation-filters="sRGB">
<feFlood flood-opacity="0" result="BackgroundImageFix"/>
<feGaussianBlur in="BackgroundImageFix" stdDeviation="18.3082"/>
<feComposite in2="SourceAlpha" operator="in" result="effect1_backgroundBlur_157_962"/>
<feColorMatrix in="SourceAlpha" type="matrix" values="0 0 0 0 0 0 0 0 0 0 0 0 0 0 0 0 0 0 127 0" result="hardAlpha"/>
<feOffset dy="16.6584"/>
<feGaussianBlur stdDeviation="15.2656"/>
<feColorMatrix type="matrix" values="0 0 0 0 0.0627451 0 0 0 0 0.376471 0 0 0 0 0.203922 0 0 0 0.105073 0"/>
<feBlend mode="normal" in2="effect1_backgroundBlur_157_962" result="effect2_dropShadow_157_962"/>
<feColorMatrix in="SourceAlpha" type="matrix" values="0 0 0 0 0 0 0 0 0 0 0 0 0 0 0 0 0 0 127 0" result="hardAlpha"/>
<feOffset dy="14.2682"/>
<feGaussianBlur stdDeviation="33.6867"/>
<feColorMatrix type="matrix" values="0 0 0 0 0.0627451 0 0 0 0 0.376471 0 0 0 0 0.203922 0 0 0 0.123572 0"/>
<feBlend mode="normal" in2="effect2_dropShadow_157_962" result="effect3_dropShadow_157_962"/>
<feColorMatrix in="SourceAlpha" type="matrix" values="0 0 0 0 0 0 0 0 0 0 0 0 0 0 0 0 0 0 127 0" result="hardAlpha"/>
<feOffset dy="-19.6971"/>
<feGaussianBlur stdDeviation="60.1819"/>
<feColorMatrix type="matrix" values="0 0 0 0 0.0627451 0 0 0 0 0.376471 0 0 0 0 0.203922 0 0 0 0.129561 0"/>
<feBlend mode="normal" in2="effect3_dropShadow_157_962" result="effect4_dropShadow_157_962"/>
<feColorMatrix in="SourceAlpha" type="matrix" values="0 0 0 0 0 0 0 0 0 0 0 0 0 0 0 0 0 0 127 0" result="hardAlpha"/>
<feOffset dy="-117.941"/>
<feGaussianBlur stdDeviation="109.143"/>
<feColorMatrix type="matrix" values="0 0 0 0 0.0627451 0 0 0 0 0.376471 0 0 0 0 0.203922 0 0 0 0.134813 0"/>
<feBlend mode="normal" in2="effect4_dropShadow_157_962" result="effect5_dropShadow_157_962"/>
<feColorMatrix in="SourceAlpha" type="matrix" values="0 0 0 0 0 0 0 0 0 0 0 0 0 0 0 0 0 0 127 0" result="hardAlpha"/>
<feOffset dy="-429.609"/>
<feGaussianBlur stdDeviation="264.654"/>
<feColorMatrix type="matrix" values="0 0 0 0 0.0627451 0 0 0 0 0.376471 0 0 0 0 0.203922 0 0 0 0.17 0"/>
<feBlend mode="normal" in2="effect5_dropShadow_157_962" result="effect6_dropShadow_157_962"/>
<feBlend mode="normal" in="SourceGraphic" in2="effect6_dropShadow_157_962" result="shape"/>
</filter>
<linearGradient id="paint0_linear_157_962" x1="732.57" y1="14.3348" x2="1529.98" y2="1067.19" gradientUnits="userSpaceOnUse">
<stop stop-color="white"/>
<stop offset="1" stop-color="#27C360"/>
</linearGradient>
<linearGradient id="paint1_linear_157_962" x1="1139.61" y1="851.175" x2="866.953" y2="105.404" gradientUnits="userSpaceOnUse">
<stop stop-color="white" stop-opacity="0.3"/>
<stop offset="1" stop-color="#39B869"/>
</linearGradient>
<linearGradient id="paint2_linear_157_962" x1="913.033" y1="596.625" x2="913.033" y2="114.511" gradientUnits="userSpaceOnUse">
<stop stop-color="#E3E2E2"/>
<stop offset="1" stop-color="white"/>
</linearGradient>
<linearGradient id="paint3_linear_157_962" x1="1050.38" y1="-189.858" x2="1083.88" y2="846.653" gradientUnits="userSpaceOnUse">
<stop offset="0.44" stop-color="#3EC772"/>
<stop offset="1" stop-color="#3EC772" stop-opacity="0"/>
</linearGradient>
<linearGradient id="paint4_linear_157_962" x1="1207.59" y1="419.074" x2="1207.59" y2="448.466" gradientUnits="userSpaceOnUse">
<stop stop-color="#A7EFC0"/>
<stop offset="1" stop-color="#23B359"/>
</linearGradient>
<linearGradient id="paint5_linear_157_962" x1="1360.92" y1="577.762" x2="1360.92" y2="609.305" gradientUnits="userSpaceOnUse">
<stop/>
<stop offset="1" stop-color="#3EC772"/>
</linearGradient>
<linearGradient id="paint6_linear_157_962" x1="996.7" y1="750.776" x2="1000.99" y2="813.216" gradientUnits="userSpaceOnUse">
<stop stop-color="white" stop-opacity="0"/>
<stop offset="1" stop-color="white"/>
</linearGradient>
<linearGradient id="paint7_linear_157_962" x1="1377.23" y1="796.079" x2="1377.23" y2="762.037" gradientUnits="userSpaceOnUse">
<stop stop-color="#E3E2E2"/>
<stop offset="1" stop-color="white"/>
</linearGradient>
<linearGradient id="paint8_linear_157_962" x1="769.039" y1="838.778" x2="769.039" y2="804.736" gradientUnits="userSpaceOnUse">
<stop stop-color="#E3E2E2"/>
<stop offset="1" stop-color="white"/>
</linearGradient>
<linearGradient id="paint9_linear_157_962" x1="1158.95" y1="256.863" x2="1158.95" y2="288.406" gradientUnits="userSpaceOnUse">
<stop/>
<stop offset="1" stop-color="#3EC772"/>
</linearGradient>
<linearGradient id="paint10_linear_157_962" x1="581.484" y1="415.062" x2="581.484" y2="446.605" gradientUnits="userSpaceOnUse">
<stop/>
<stop offset="1" stop-color="#3EC772"/>
</linearGradient>
</defs>
</svg>
